<?xml version="1.0" encoding="UTF-8"?>
<svg width="176px" height="196px" viewBox="0 0 176 196" version="1.1" xmlns="http://www.w3.org/2000/svg" xmlns:xlink="http://www.w3.org/1999/xlink">
    <!-- Generator: Sketch 60 (88103) - https://sketch.com -->
    <title>Whiskey</title>
    <desc>Created with Sketch.</desc>
    <defs>
        <linearGradient x1="90.0277008%" y1="5.15213816%" x2="13.6384392%" y2="100%" id="linearGradient-1">
            <stop stop-color="#2975FF" offset="0%"></stop>
            <stop stop-color="#0A117C" offset="100%"></stop>
        </linearGradient>
    </defs>
    <g id="Page-1" stroke="none" stroke-width="1" fill="none" fill-rule="evenodd">
        <g id="Mobile" transform="translate(-421.000000, -25.000000)">
            <g id="Whiskey" transform="translate(424.000000, 28.000000)">
                <rect id="Rectangle-Copy-2" stroke="#858585" stroke-width="5" fill="url(#linearGradient-1)" x="0" y="0" width="170" height="190" rx="15"></rect>
                <g id="whiskey-(1)" transform="translate(26.000000, 15.000000)" fill-rule="nonzero">
                    <path d="M112.952419,161 L86.0482179,161 C83.2602393,161 81,158.773411 81,156.026941 L81,113.423875 C81,112.637467 81.6471013,112 82.4453946,112 L116.554605,112 C117.352899,112 118,112.637467 118,113.423875 L118,156.026941 C118.000636,158.773411 115.740397,161 112.952419,161 Z" id="Path" fill="#E5F9F6"></path>
                    <path d="M116.567192,112 L100,112 L100,161 L112.996845,161 C115.759937,161 118,158.773725 118,156.026941 L118,113.423875 C118,112.637467 117.358675,112 116.567192,112 Z" id="Path" fill="#D6E5E2"></path>
                    <g id="Group" transform="translate(0.000000, 17.000000)" fill="#FD9727">
                        <path d="M81.2784628,109.844078 L81.2784628,138.710902 C81.2784628,141.458824 83.5069681,143.686588 86.2558032,143.686588 L112.782266,143.686588 C115.531101,143.686588 117.759606,141.458824 117.759606,138.710902 L117.759606,109.844078 L81.2784628,109.844078 L81.2784628,109.844078 Z" id="Path"></path>
                        <path d="M39.2180532,31.7665882 C39.2180532,31.7665882 41.0483085,29.9231373 41.0483085,21.3785098 C41.0483085,8.97694118 36.4660798,0.0367058824 36.4660798,0.0367058824 L20.6795,0.0367058824 C20.6795,0.0367058824 16.0972713,8.97694118 16.0972713,21.3785098 C16.0972713,29.9231373 17.9272128,31.7665882 17.9272128,31.7665882 L3.8381383,42.9807059 C1.56506915,44.7899608 0.241021277,47.536 0.241021277,50.4404706 L0.241021277,138.040157 C0.241021277,141.158275 2.76954787,143.685961 5.88870213,143.685961 L51.2568777,143.685961 C54.3760319,143.685961 56.9045585,141.158275 56.9045585,138.040157 L56.9045585,50.4404706 C56.9045585,47.536 55.5801968,44.7896471 53.3074415,42.9807059 L39.2180532,31.7665882 Z" id="Path"></path>
                    </g>
                    <path d="M53.3972204,60.0487614 L39.285967,48.807287 C39.285967,48.807287 41.1187892,46.959339 41.1187892,38.393867 C41.1187892,25.9620449 36.5293472,17 36.5293472,17 L23.0005358,17 C23.0005358,29.1588441 23,43.3832638 23,43.4316954 C22.9687891,50.7439215 26.2839624,52.883088 32.0015126,57.4378586 L35.2792814,60.0490759 C37.5559288,61.8627444 38.8820609,64.6154826 38.8820609,67.5270386 L38.8820609,161 L51.3434286,161 C54.467493,161 57,158.466147 57,155.340423 L57,67.5267241 C57,64.6151681 55.6738678,61.8624299 53.3972204,60.0487614 Z" id="Path" fill="#E57F23"></path>
                    <rect id="Rectangle" fill="#4A4256" x="0" y="73" width="57" height="75"></rect>
                    <rect id="Rectangle" fill="#352F3F" x="39" y="73" width="18" height="75"></rect>
                    <g id="Group" transform="translate(10.000000, 83.000000)" fill="#EFEFEF">
                        <path d="M31.5482414,11.5755517 C22.7565948,7.75924138 14.2925259,7.75055172 5.48014655,11.5758621 C4.4390431,12.0277241 3.21453448,11.637931 2.63337931,10.683931 C1.90390517,9.48662069 1.17443103,8.28931034 0.444637931,7.09168966 C-0.239224138,5.96917241 0.229017241,4.51862069 1.44618966,3.97055172 C12.783819,-1.13462069 24.2397845,-1.1367931 35.5821983,3.97055172 C36.7993707,4.51862069 37.267931,5.96917241 36.58375,7.09168966 C35.8542759,8.289 35.1248017,9.48631034 34.3953276,10.683931 C33.8141724,11.637931 32.5893448,12.0274138 31.5482414,11.5755517 Z" id="Path"></path>
                        <ellipse id="Oval" cx="18.5127586" cy="30.177931" rx="14.3598276" ry="9.57786207"></ellipse>
                        <path d="M33.4087672,53.982931 L3.61930172,53.982931 C2.2579569,53.982931 1.15433621,52.9091379 1.15433621,51.5845862 C1.15433621,50.2600345 2.2579569,49.1862414 3.61930172,49.1862414 L33.4087672,49.1862414 C34.7701121,49.1862414 35.8737328,50.2600345 35.8737328,51.5845862 C35.8737328,52.9091379 34.7701121,53.982931 33.4087672,53.982931 Z" id="Path"></path>
                    </g>
                    <path d="M41,37 C40.7957655,25.3296828 36.4149516,17 36.4149516,17 L20.5850484,17 C20.5850484,17 16.2045492,25.3293764 16,37 L41,37 Z" id="Path" fill="#4A4256"></path>
                    <path d="M41,37 C40.8097271,26.060303 36.9764632,18.0562593 36.4968757,17.0968033 C36.4900021,17.0833244 36.4865653,17.0762786 36.4812539,17.0655567 C36.4740679,17.0511587 36.4653197,17.0340037 36.4606332,17.0248135 C36.4525099,17.0085775 36.4478234,17 36.4478234,17 L23.0003124,17 C23.0003124,24.0724647 23.0003124,31.8611515 23,37 L41,37 Z" id="Path" fill="#352F3F"></path>
                    <path d="M38.4813012,19 L19.5186988,19 C18.6799863,19 18,18.3418287 18,17.5300234 L18,1.46997656 C18,0.658171321 18.6799863,0 19.5186988,0 L38.4813012,0 C39.3200137,0 40,0.658171321 40,1.46997656 L40,17.5297204 C40,18.3418287 39.3200137,19 38.4813012,19 Z" id="Path" fill="#4A4256"></path>
                    <rect id="Rectangle" fill="#EFEFEF" x="18" y="6" width="22" height="5"></rect>
                    <path d="M118,156.001159 L118,127 L100,127 L100,161 L112.996845,161 C115.759937,161 118,158.762183 118,156.001159 Z" id="Path" fill="#E57F23"></path>
                    <path d="M112.951869,152.785837 L86.0481311,152.785837 C83.2602004,152.785837 81,152.853601 81,150 L81,155.832958 C81,158.68656 83.2602004,161 86.0481311,161 L112.951869,161 C115.7398,161 118,158.68656 118,155.832958 L118,150 C118,152.853927 115.7398,152.785837 112.951869,152.785837 Z" id="Path" fill="#D7E0DC"></path>
                    <path d="M112.997073,152.785594 L100,152.785594 L100,161 L112.997073,161 C114.650099,161 116.111639,160.168557 117.02238,158.892071 C117.158345,158.701804 117.286107,158.50502 117.396204,158.295856 C117.473177,158.149572 117.543525,157.998726 117.606933,157.844297 C117.683275,157.658265 117.745421,157.46474 117.800312,157.268282 C117.876339,156.99689 117.932175,156.717028 117.964037,156.429346 C117.985804,156.23354 118,156.035127 118,155.833131 L118,150 C118.000315,152.853686 115.760213,152.785594 112.997073,152.785594 Z" id="Path" fill="#C9D1CD"></path>
                    <g id="Group" transform="translate(38.000000, 84.000000)" fill="#DEE0E2">
                        <path d="M6.63230769,2.46126316 C4.49507692,1.446 2.35323077,0.632210526 0.209230769,0.0135789474 L0.209230769,9.15410526 C1.05046154,9.46452632 1.89384615,9.81189474 2.74061538,10.1996842 C3.74492308,10.6594737 4.92646154,10.2631579 5.48707692,9.29210526 C6.19076923,8.07378947 6.89446154,6.85547368 7.59846154,5.63715789 C8.25846154,4.49494737 7.80676923,3.01894737 6.63230769,2.46126316 Z" id="Path"></path>
                        <path d="M0.209538462,22.4188421 L0.209538462,35.8367368 C2.56892308,34.0891579 4.01938462,31.7283158 4.01938462,29.1277895 C4.01938462,26.5272632 2.56861538,24.1664211 0.209538462,22.4188421 Z" id="Path"></path>
                    </g>
                </g>
            </g>
        </g>
    </g>
</svg>