<?xml version="1.0" encoding="UTF-8"?>
<svg width="176px" height="196px" viewBox="0 0 176 196" version="1.1" xmlns="http://www.w3.org/2000/svg" xmlns:xlink="http://www.w3.org/1999/xlink">
    <!-- Generator: Sketch 60 (88103) - https://sketch.com -->
    <title>Brandy</title>
    <desc>Created with Sketch.</desc>
    <defs>
        <linearGradient x1="90.0277008%" y1="5.15213816%" x2="13.6384392%" y2="100%" id="linearGradient-1">
            <stop stop-color="#FEE366" offset="0%"></stop>
            <stop stop-color="#7A5D01" offset="100%"></stop>
        </linearGradient>
    </defs>
    <g id="Page-1" stroke="none" stroke-width="1" fill="none" fill-rule="evenodd">
        <g id="Mobile" transform="translate(-1024.000000, -25.000000)">
            <g id="Brandy" transform="translate(1027.000000, 28.000000)">
                <rect id="Rectangle-Copy-5" stroke="#858585" stroke-width="5" fill="url(#linearGradient-1)" x="0" y="0" width="170" height="190" rx="15"></rect>
                <g id="drink" transform="translate(18.000000, 25.000000)" fill-rule="nonzero">
                    <rect id="Rectangle" fill="#B3CCE2" x="41" y="31" width="18" height="19"></rect>
                    <rect id="Rectangle" fill="#210035" opacity="0.1" x="41" y="31" width="9" height="19"></rect>
                    <rect id="Rectangle" fill="#B3CCE2" x="44" y="17" width="14" height="12"></rect>
                    <path d="M66,33.5311751 C66,34.3392458 65.3932047,35 64.652097,35 L37.3476376,35 C36.6065298,35 36,34.3389564 36,33.5311751 L36,29.4691144 C36,28.661333 36.6065298,28 37.3476376,28 L64.6523624,28 C65.3934702,28 66,28.6610436 66,29.4691144 L66,33.5311751 L66,33.5311751 Z" id="Path" fill="#E2EEFD"></path>
                    <path d="M42.6315733,33.5311751 L42.6315733,29.4691144 C42.6315733,28.661333 43.2474596,28 44,28 L35.3684267,28 C34.6158864,28 34,28.6610436 34,29.4691144 L34,33.5311751 C34,34.3392458 34.6158864,35 35.3684267,35 L44,35 C43.2474596,35 42.6315733,34.3389564 42.6315733,33.5311751 Z" id="Path" fill="#210035" opacity="0.1"></path>
                    <path d="M70,18.5890628 C70,19.3652868 69.3750412,20 68.6108075,20 L32.3891925,20 C31.6252324,20 31,19.3650088 31,18.5890628 L31,1.4109372 C31,0.634713225 31.6252324,0 32.3891925,0 L68.6108075,0 C69.3750412,0 70,0.634991242 70,1.4109372 L70,18.5890628 L70,18.5890628 Z" id="Path" fill="#C1262C"></path>
                    <path d="M38.6113239,18.5890628 L38.6113239,1.4109372 C38.6113239,0.634713225 39.2363239,0 40,0 L31.3886761,0 C30.625,0 30,0.634991242 30,1.4109372 L30,18.5890628 C30,19.3652868 30.625,20 31.3886761,20 L40,20 C39.2363239,20 38.6113239,19.3652868 38.6113239,18.5890628 Z" id="Path" fill="#210035" opacity="0.1"></path>
                    <path d="M97.8475436,69.6902293 L59.7149377,47 L40.9495572,47 L2.1365459,69.7105 C0.606653072,70.6056947 -0.311065155,72.751916 0.0969606329,74.4795762 L14.8242179,136.858327 C15.2319718,138.586261 17.0149439,140 18.7862271,140 L82.0356609,140 C83.8072159,140 85.5733342,138.582426 85.9609723,136.849835 L99.911866,74.488068 C100.299776,72.755751 99.3703687,70.5966551 97.8475436,69.6902293 Z" id="Path" fill="#E2EEFD"></path>
                    <path d="M97.8475436,69.9182521 L89.5551874,65 L10.6045081,65 L2.1365459,69.938457 C0.606653072,70.8307486 -0.311065155,72.9700094 0.0969606329,74.6920666 L14.8242179,136.868515 C15.2319718,138.590846 17.0149439,140 18.7862271,140 L82.0356609,140 C83.8072159,140 85.5733342,138.587023 85.9609723,136.860051 L99.911866,74.7005308 C100.299776,72.9738319 99.3703687,70.8217383 97.8475436,69.9182521 Z" id="Path" fill="#FF9300"></path>
                    <path d="M14,133.003229 L14.9401721,136.913886 C15.3483869,138.611141 17.1321846,140 18.9042881,140 L82.1830117,140 C83.9553871,140 85.7223232,138.607374 86.1101408,136.905274 L87,133 L14,133.003229 Z" id="Path" fill="#F07C3C"></path>
                    <path d="M26.273398,139.778118 L11.5264622,77.3991841 C11.1178912,75.6712449 12.0368357,73.5252912 13.5687728,72.6300938 L56,47 L41.0042741,47 L2.13940076,69.7102929 C0.607463684,70.6054903 -0.311480801,72.7517179 0.0970901919,74.4793832 L14.844026,136.858317 C15.2523248,138.586256 17.0376793,140 18.8113293,140 L26.3373649,140 C26.3147723,139.926313 26.291091,139.853174 26.273398,139.778118 Z" id="Path" fill="#210035" opacity="0.1"></path>
                    <path d="M74,111.624785 C74,112.381086 73.3767722,113 72.6146552,113 L27.3853448,113 C26.6235007,113 26,112.381086 26,111.624785 L26,84.3752145 C26,83.6186433 26.6235007,83 27.3853448,83 L72.6146552,83 C73.3767722,83 74,83.6189143 74,84.3752145 L74,111.624785 L74,111.624785 Z" id="Path" fill="#C1262C"></path>
                    <g id="Group" transform="translate(35.000000, 89.000000)" fill="#FFFFFF">
                        <path d="M27.7416667,4.18690909 L2.35861111,4.18690909 C1.20805556,4.18690909 0.275277778,3.27109091 0.275277778,2.14145455 C0.275277778,1.01181818 1.20805556,0.096 2.35861111,0.096 L27.7416667,0.096 C28.8922222,0.096 29.825,1.01181818 29.825,2.14145455 C29.825,3.27109091 28.8922222,4.18690909 27.7416667,4.18690909 Z" id="Path"></path>
                        <ellipse id="Oval" cx="15.05" cy="22.7590909" rx="13.3888889" ry="13.1427273"></ellipse>
                    </g>
                    <g id="Group" transform="translate(43.000000, 107.000000)" fill="#F07C3C">
                        <path d="M11.9072692,4.3483 L2.18965385,4.3483 C1.0745,4.3483 0.170423077,3.42485 0.170423077,2.2858 C0.170423077,1.14675 1.0745,0.2233 2.18965385,0.2233 L11.9072692,0.2233 C13.0224231,0.2233 13.9265,1.14675 13.9265,2.2858 C13.9265,3.42485 13.0224231,4.3483 11.9072692,4.3483 Z" id="Path"></path>
                        <path d="M10.0353077,10.952425 L4.06215385,10.952425 C2.947,10.952425 2.04292308,10.028975 2.04292308,8.889925 C2.04292308,7.750875 2.947,6.827425 4.06215385,6.827425 L10.0353077,6.827425 C11.1504615,6.827425 12.0545385,7.750875 12.0545385,8.889925 C12.0545385,10.028975 11.1504615,10.952425 10.0353077,10.952425 Z" id="Path"></path>
                    </g>
                    <path d="M106.999566,120.126025 C105.979557,120.126025 104.980666,120.080272 104,120 L104,133 L110,133 L110,120 C109.019334,120.080546 108.019864,120.126025 106.999566,120.126025 Z" id="Path" fill="#B3CCE2"></path>
                    <path d="M82.0598747,100.218781 C83.4924178,112.050597 93.3141486,120 106.499733,120 C119.685855,120 129.507317,112.050873 130.940398,100.219057 C131.037246,99.4140888 131.020298,97.5460233 130.858346,96 L82.1419265,96 C81.9794371,97.5462987 81.9627577,99.4140888 82.0598747,100.218781 Z" id="Path" fill="#D16605"></path>
                    <path d="M90.615192,100.218781 C90.517192,99.4138133 90.5340231,97.5460233 90.6979898,96 L82.1432168,96 C81.9792501,97.5462987 81.9624191,99.4140888 82.0604191,100.218781 C83.5059865,112.050597 93.4170138,120 106.722478,120 C108.19302,120 109.619042,119.897519 111,119.708812 C99.887455,118.190062 91.9011362,110.74342 90.615192,100.218781 Z" id="Path" fill="#210035" opacity="0.1"></path>
                    <g id="Group" transform="translate(80.000000, 72.000000)" fill="#E2EEFD">
                        <path d="M27.0518182,50.0888182 C12.6032727,50.0888182 1.83081818,41.4981818 0.245454545,28.7119091 C0.0919090909,27.4753636 0.134727273,23.5720909 0.777,21.7513636 L7.35518182,2.48590909 C7.854,1.02381818 9.22990909,0.0411818182 10.7787273,0.0411818182 L43.3257273,0.0411818182 C44.8745455,0.0411818182 46.2504545,1.02381818 46.7492727,2.48618182 L53.3271818,21.7519091 C53.9689091,23.5715455 54.0122727,27.4745455 53.859,28.7119091 C52.2733636,41.4981818 41.5003636,50.0888182 27.0518182,50.0888182 Z M11.1158182,4.13209091 L4.64454545,23.0847273 C4.64154545,23.0934545 4.63854545,23.1021818 4.63554545,23.1111818 C4.314,24.012 4.17845455,27.1854545 4.30554545,28.2087273 C5.62472727,38.8491818 14.7657273,45.9981818 27.0518182,45.9981818 C39.3381818,45.9981818 48.4794545,38.8494545 49.7989091,28.209 C49.9257273,27.1851818 49.7899091,24.0111818 49.4686364,23.112 C49.4653636,23.103 49.4626364,23.094 49.4593636,23.085 L42.9883636,4.13209091 L11.1158182,4.13209091 L11.1158182,4.13209091 Z" id="Shape"></path>
                        <polygon id="Path" points="17.4223636 65.8636364 27.0518182 58.0459091 36.6820909 65.8636364"></polygon>
                    </g>
                    <path d="M121.929646,140 L91.0706302,140 C89.9268141,140 89,139.104533 89,138 C89,136.895467 89.9268141,136 91.0706302,136 L121.92937,136 C123.073186,136 124,136.895467 124,138 C124,139.104533 123.073186,140 121.929646,140 Z" id="Path" fill="#B3CCE2"></path>
                </g>
            </g>
        </g>
    </g>
</svg>