<?xml version="1.0" encoding="UTF-8"?>
<svg width="176px" height="196px" viewBox="0 0 176 196" version="1.1" xmlns="http://www.w3.org/2000/svg" xmlns:xlink="http://www.w3.org/1999/xlink">
    <!-- Generator: Sketch 60 (88103) - https://sketch.com -->
    <title>Gin</title>
    <desc>Created with Sketch.</desc>
    <defs>
        <linearGradient x1="90.0277008%" y1="5.15213816%" x2="13.6384392%" y2="100%" id="linearGradient-1">
            <stop stop-color="#FF9700" offset="0%"></stop>
            <stop stop-color="#613204" offset="100%"></stop>
        </linearGradient>
    </defs>
    <g id="Page-1" stroke="none" stroke-width="1" fill="none" fill-rule="evenodd">
        <g id="Mobile" transform="translate(-220.000000, -25.000000)">
            <g id="Gin" transform="translate(223.000000, 28.000000)">
                <rect id="Rectangle-Copy" stroke="#858585" stroke-width="5" fill="url(#linearGradient-1)" x="0" y="0" width="170" height="190" rx="15"></rect>
                <g id="gin" transform="translate(49.000000, 20.000000)" fill-rule="nonzero">
                    <rect id="Rectangle" fill="#3E5F56" x="23" y="13" width="21" height="16"></rect>
                    <path d="M44.4614929,26 L23.5385071,26 C10.5385245,26 0,36.493294 0,49.4374816 L0,142.59504 C0,147.236928 3.77929208,151 8.44118929,151 L59.5588107,151 C64.2207079,151 68,147.236928 68,142.59504 L68,49.4374816 C68,36.493294 57.4614755,26 44.4614929,26 Z" id="Path" fill="#639085"></path>
                    <path d="M19.7401507,0 L47.2601487,0 C48.5172631,0 49.7228835,0.503870407 50.6117553,1.40074765 C51.5006271,2.29762489 52,3.51410339 52,4.78253974 L52,13.3332326 C52,14.8058755 50.8168335,16 49.3570359,16 L17.6429641,16 C16.1834659,16 15,14.8061775 15,13.3332326 L15,4.78253974 C15,2.14114715 17.1223349,0 19.7401507,0 Z" id="Path" fill="#D69564"></path>
                    <path d="M58,47.3134308 C58.0076378,45.6132942 57.1743965,44.0182933 55.7720547,43.0479226 C49.4628478,38.9290744 42.0420609,36.8234141 34.5,37.0115982 C26.9576433,36.8234141 19.5371522,38.9290744 13.2279453,43.0479226 C11.8256035,44.0179988 10.9923622,45.6129997 11,47.3134308 L11,135.800639 C11,138.672288 13.3379793,141 16.2222304,141 L52.7777696,141 C55.6620207,141 58,138.671994 58,135.800639 L58,47.3134308 Z" id="Path" fill="#FAEDBD"></path>
                    <g id="Group" transform="translate(11.000000, 55.000000)" fill="#BBB084">
                        <ellipse id="Oval" cx="23.4737723" cy="10.5579342" rx="10.3607363" ry="10.4455213"></ellipse>
                        <rect id="Rectangle" x="0.161969029" y="34.0605051" width="46.6239" height="20.8913385"></rect>
                    </g>
                    <path d="M39.3332326,102 L28.6667674,102 C27.1941245,102 26,100.657 26,99 C26,97.3429995 27.1938225,96 28.6667674,96 L39.3332326,96 C40.8058755,96 42,97.3429995 42,99 C42,100.657 40.8061775,102 39.3332326,102 Z" id="Path" fill="#8C8463"></path>
                    <g id="Group" transform="translate(18.000000, 117.000000)" fill="#BBB084">
                        <path d="M21.0787417,5.26901809 L10.5445917,5.26901809 C9.09021667,5.26901809 7.910905,4.10551809 7.910905,2.6699852 C7.910905,1.2344523 9.08991833,0.0709523026 10.5445917,0.0709523026 L21.0787417,0.0709523026 C22.5331167,0.0709523026 23.7124283,1.2344523 23.7124283,2.6699852 C23.7124283,4.10551809 22.533415,5.26901809 21.0787417,5.26901809 Z" id="Path"></path>
                        <path d="M28.9795033,15.6645609 L2.64383,15.6645609 C1.189455,15.6645609 0.0101433333,14.5010609 0.0101433333,13.065528 C0.0101433333,11.6299951 1.18915667,10.4664951 2.64383,10.4664951 L28.9795033,10.4664951 C30.4338783,10.4664951 31.61319,11.6299951 31.61319,13.065528 C31.61319,14.5010609 30.4338783,15.6645609 28.9795033,15.6645609 Z" id="Path"></path>
                    </g>
                    <g id="Group" transform="translate(21.000000, 0.000000)" fill="#98623E">
                        <path d="M2.79620908,7.79680451 C3.47203175,7.79709868 4.12015203,7.52359375 4.59801811,7.03605428 C5.07588418,6.5485148 5.34396243,5.88727467 5.34367409,5.19777138 L5.34367409,0 L0.249032629,0 L0.249032629,5.19777138 C0.248744296,5.88727467 0.516822545,6.5485148 0.994688616,7.03605428 C1.47226612,7.52359375 2.12038641,7.79709868 2.79620908,7.79680451 Z" id="Path"></path>
                        <path d="M12.9854911,7.79680451 C13.6613137,7.79709868 14.309434,7.52359375 14.7873001,7.03605428 C15.2651662,6.5485148 15.5332444,5.88727467 15.5329561,5.19777138 L15.5329561,0 L10.4383146,0 L10.4383146,5.19777138 C10.4380263,5.88727467 10.7061045,6.5485148 11.1839706,7.03605428 C11.6615481,7.52359375 12.3096684,7.79709868 12.9854911,7.79680451 Z" id="Path"></path>
                        <path d="M23.1747731,7.79680451 C23.8505957,7.79709868 24.498716,7.52359375 24.9765821,7.03605428 C25.4544482,6.5485148 25.7225264,5.88727467 25.7222381,5.19777138 L25.7222381,0 L20.6275966,0 L20.6275966,5.19777138 C20.6273083,5.88727467 20.8953865,6.5485148 21.3732526,7.03605428 C21.8511187,7.52359375 22.499239,7.79709868 23.1747731,7.79680451 Z" id="Path"></path>
                    </g>
                </g>
            </g>
        </g>
    </g>
</svg>