<?xml version="1.0" encoding="UTF-8"?>
<svg width="176px" height="196px" viewBox="0 0 176 196" version="1.1" xmlns="http://www.w3.org/2000/svg" xmlns:xlink="http://www.w3.org/1999/xlink">
    <!-- Generator: Sketch 60 (88103) - https://sketch.com -->
    <title>Liqueur</title>
    <desc>Created with Sketch.</desc>
    <defs>
        <linearGradient x1="90.0277008%" y1="5.15213816%" x2="13.6384392%" y2="100%" id="linearGradient-1">
            <stop stop-color="#FEE366" offset="0%"></stop>
            <stop stop-color="#7A5D01" offset="100%"></stop>
        </linearGradient>
    </defs>
    <g id="Page-1" stroke="none" stroke-width="1" fill="none" fill-rule="evenodd">
        <g id="Mobile" transform="translate(-1024.000000, -25.000000)">
            <g id="Liqueur" transform="translate(1027.000000, 28.000000)">
                <rect id="Rectangle-Copy-5" stroke="#858585" stroke-width="5" fill="url(#linearGradient-1)" x="0" y="0" width="170" height="190" rx="15"></rect>
                <g id="liqueur" transform="translate(37.000000, 20.000000)" fill-rule="nonzero">
                    <path d="M64.9615759,18.7051622 L48.1975999,9 L32.0384241,18.7051622 C32.0384241,43.5170452 0,28.3108157 0,75.5384336 L0,134.170495 C0,143.465107 7.44613131,151 16.6312518,151 L80.3687482,151 C89.5538687,151 97,143.465107 97,134.170495 L97,75.5384336 C97,28.3108157 64.9615759,43.5170452 64.9615759,18.7051622 Z" id="Path" fill="#60D9A7"></path>
                    <path d="M9.08270402,134.170495 L9.08270402,75.5384336 C9.08270402,28.3108157 41.2391093,43.5173504 41.2391093,18.7051622 L53,11.6675079 L48.3750871,9 L32.1564053,18.7051622 C32.1564053,43.5173504 0,28.3108157 0,75.5384336 L0,134.170495 C0,143.465412 7.47355162,151 16.6924962,151 L25.7752002,151 C16.5562556,151 9.08270402,143.465107 9.08270402,134.170495 Z" id="Path" fill="#00C071"></path>
                    <path d="M60.5477102,0 L36.4516864,0 C31.2315852,0 27,4.19147966 27,9.36210665 L27,14.0098445 C27,16.7659186 29.2554578,19 32.037903,19 L64.962097,19 C67.7445422,19 70,16.7659186 70,14.0098445 L70,9.36240545 C70,4.19177845 65.7678115,0 60.5477102,0 L60.5477102,0 Z" id="Path" fill="#00C071"></path>
                    <path d="M35.8041022,14.0101433 L35.8041022,9.36210665 C35.8041022,4.19177845 39.9213311,0 45,0 L36.1956043,0 C31.1169354,0 27,4.19177845 27,9.36210665 L27,14.0098445 C27,16.7659186 29.1943489,19 31.9014071,19 L40.7058027,19 C37.9987446,19.0002988 35.8041022,16.7662174 35.8041022,14.0101433 Z" id="Path" fill="#008B48"></path>
                    <path d="M82,83.2474585 L82,79.0529255 C82,60.245848 67.0011707,45 48.4998503,45 C29.9982305,45 15,60.2461523 15,79.0529255 L15,83.2474585 L21.4990237,95.4317813 L15,107.616104 L15,126.480091 C15,130.633235 18.312083,134 22.3977738,134 L74.6022262,134 C78.687917,134 82,130.633235 82,126.480091 L82,107.616104 L77.5131349,95.4317813 L82,83.2474585 Z" id="Path" fill="#00C071"></path>
                    <path d="M27,122 L27,78.9875008 C27,66.8635833 36.6449578,57 48.4998503,57 C60.3550422,57 70,66.8635833 70,78.9875008 L70,122 L27,122 L27,122 Z" id="Path" fill="#FFF7E5"></path>
                    <polygon id="Path" fill="#FD5F7E" points="15 83 82 83 82 107 15 107"></polygon>
                    <g id="Group" transform="translate(24.000000, 90.000000)" fill="#423E4F">
                        <path d="M2.37035246,8.70475908 C1.09514531,8.70475908 0.0618673995,7.70336884 0.0618673995,6.46818172 L0.0618673995,2.98240136 C0.0618673995,1.74721423 1.09514531,0.745823997 2.37035246,0.745823997 C3.6455596,0.745823997 4.67883751,1.74721423 4.67883751,2.98240136 L4.67883751,6.46818172 C4.67883751,7.70366705 3.6455596,8.70475908 2.37035246,8.70475908 Z" id="Path"></path>
                        <path d="M22.0380295,10.9723503 C19.3835795,10.9723503 16.8593281,9.85853479 15.1122666,7.91658922 C14.2747482,6.98527841 14.3747825,5.57265615 15.3360357,4.76092767 C16.2969811,3.94949741 17.7550203,4.04611755 18.5931542,4.97742836 C19.4629914,5.94452441 20.7184995,6.49889738 22.0380295,6.49889738 C23.3575596,6.49889738 24.6130677,5.9442262 25.4829048,4.97742836 C26.320731,4.04641576 27.779078,3.9491992 28.7400234,4.76092767 C29.7012765,5.57265615 29.8010031,6.98527841 28.9637925,7.91658922 C27.216731,9.85853479 24.6924796,10.9723503 22.0380295,10.9723503 L22.0380295,10.9723503 Z" id="Path"></path>
                        <path d="M46.5695307,8.60784073 C45.2943236,8.60784073 44.2610457,7.60645049 44.2610457,6.37126337 C44.2610457,5.37703018 43.4262975,4.56828381 42.4000989,4.56828381 C41.3739004,4.56828381 40.5388444,5.37703018 40.5388444,6.37126337 C40.5388444,7.60645049 39.5055665,8.60784073 38.2303593,8.60784073 C36.9551522,8.60784073 35.9218743,7.60645049 35.9218743,6.37126337 C35.9218743,2.91053267 38.8277953,0.0951290903 42.4000989,0.0951290903 C45.971787,0.0951290903 48.8780158,2.91053267 48.8780158,6.37126337 C48.8780158,7.60645049 47.8444301,8.60784073 46.5695307,8.60784073 Z" id="Path"></path>
                    </g>
                </g>
            </g>
        </g>
    </g>
</svg>