<?xml version="1.0" encoding="UTF-8"?>
<svg width="176px" height="196px" viewBox="0 0 176 196" version="1.1" xmlns="http://www.w3.org/2000/svg" xmlns:xlink="http://www.w3.org/1999/xlink">
    <!-- Generator: Sketch 60 (88103) - https://sketch.com -->
    <title>Tequila</title>
    <desc>Created with Sketch.</desc>
    <defs>
        <linearGradient x1="90.0277008%" y1="5.15213816%" x2="13.6384392%" y2="100%" id="linearGradient-1">
            <stop stop-color="#FF5959" offset="0%"></stop>
            <stop stop-color="#710707" offset="100%"></stop>
        </linearGradient>
    </defs>
    <g id="Page-1" stroke="none" stroke-width="1" fill="none" fill-rule="evenodd">
        <g id="Mobile" transform="translate(-622.000000, -25.000000)">
            <g id="Tequila" transform="translate(625.000000, 28.000000)">
                <rect id="Rectangle-Copy-3" stroke="#858585" stroke-width="5" fill="url(#linearGradient-1)" x="0" y="0" width="170" height="190" rx="15"></rect>
                <g id="tequila" transform="translate(15.000000, 26.000000)" fill-rule="nonzero">
                    <path d="M50,25 L45.4454606,14.6367096 L40.8920275,4.27452541 C39.9760307,1.78658354 37.6495316,0.0984556128 35,0 C32.3504684,0.0984556128 30.0228631,1.78658354 29.1079725,4.27452541 L24.5534332,14.6367096 L20,25 L50,25 Z" id="Path" fill="#F29C1F"></path>
                    <path d="M57.9284405,115 C59.2548518,115 60.527056,115.526588 61.4640622,116.463604 L64.9996839,119.999263 L66.2530817,121.25378 L67.5075859,122.507191 C69.1039258,124.103548 70,126.267424 70,128.525334 L70,134.500332 L69.6128072,137.249428 L69.2245086,139.999631 C69.013212,140.462055 68.7620898,140.905672 68.474461,141.32495 C68.1868322,141.745335 67.8604841,142.13917 67.499842,142.499816 C65.9012897,144.098385 63.7352234,144.996681 61.475125,145 L8.52487529,145 C3.81882546,144.994469 0.00553130893,141.181134 0,136.475035 L0,128.525334 C0,126.267424 0.896074483,124.103548 2.49241411,122.507191 L5.51362286,119.48595 L8.5348316,116.463604 C9.472944,115.526588 10.7451482,115 12.0704533,115 L57.9284405,115 Z" id="Path" fill="#71C285"></path>
                    <path d="M50.0004424,33 L20.0006638,33 C14.4770669,33 10,28.5227349 10,23 L60,23 C60,28.5227349 55.5229329,33 50.0004424,33 Z" id="Path" fill="#E57E25"></path>
                    <path d="M65,79.1255313 L65,121.999709 C65,124.760932 62.7620443,127 59.9997234,127 L10.0002766,127 C7.2390619,127 5,124.760932 5,121.999709 L5,76.0755751 C5.00110619,73.9725766 5.38055202,71.8861718 6.12174332,69.9192433 C6.86404108,67.9534209 7.94817184,66.1358372 9.32546034,64.5505677 L14.0878918,59.1121982 L18.8503236,53.6749347 L20.513026,51.7754879 L22.1757286,49.8749346 L22.3383483,49.6879769 L22.500968,49.4999127 C21.72327,46.2220669 21.5827755,42.8247455 22.0850158,39.4937993 C22.4478677,36.9361282 23.0817523,34.4238138 23.975607,32 L46.0254992,32 C46.9193539,34.4238138 47.5532385,36.9361282 47.9160904,39.4937993 C48.4183307,42.8247455 48.27673,46.2220669 47.5001382,49.4999127 L47.6627579,49.6879769 L47.8253776,49.8749346 L49.4880799,51.7754879 L51.1507826,53.6749347 L53.8876598,56.8001166 L56.6256431,59.9252984 L65,79.1255313 Z" id="Path" fill="#71C285"></path>
                    <path d="M51,53.7331525 C50.7219633,54.0037652 50.4275716,54.2732912 50.1158026,54.5341228 C49.7989224,54.8014751 49.4697762,55.0503521 49.1283634,55.2807533 C48.6775761,55.5752755 48.1981673,55.8578434 47.6962702,56.1219351 C47.1933509,56.3860272 46.6679435,56.6316438 46.1251586,56.8522637 C45.9932957,56.9000828 45.8583662,56.9370341 45.7213921,56.9631172 C45.1234089,57.0739705 44.5080482,56.9326869 44.0061513,56.5696961 C43.0769771,55.8980548 42.7406755,54.6091118 43.2119069,53.5244872 C43.4684773,52.9300084 43.9335755,52.4670324 44.5080482,52.2355442 C44.892393,52.0910001 45.2675381,51.9214595 45.6314391,51.7280095 C45.9748961,51.5476009 46.3091535,51.34763 46.6331888,51.1302703 C46.8785153,50.9770318 47.1125978,50.8031441 47.3323693,50.6107805 C47.5449855,50.4238515 47.7443134,50.2195331 47.9272861,50 L49.4636429,51.8671197 L51,53.7331525 Z" id="Path" fill="#4C8056"></path>
                    <path d="M26.8565609,55.4035615 C26.6899003,55.8774056 26.389298,56.284955 25.9956518,56.5696961 C25.4936253,56.9326869 24.8781062,57.0739705 24.2799688,56.9631172 C24.1429594,56.9370341 24.0079951,56.9000828 23.8750758,56.8522637 C23.332151,56.6316438 22.8066081,56.3860272 22.3045816,56.1219351 C21.8015326,55.8578434 21.322,55.5752755 20.8721189,55.2807533 C20.5306183,55.0503521 20.201387,54.8014751 19.8844254,54.5341228 C19.5715534,54.2732912 19.2770857,54.0037652 19,53.7331525 L20.5367529,51.8671197 L22.0735061,50 C22.256526,50.2195331 22.4548828,50.4238515 22.6685763,50.6107805 C22.8884047,50.8031441 23.1215246,50.9770318 23.3669144,51.1302703 C23.6910335,51.34763 24.0263994,51.5476009 24.369945,51.7280095 C24.7339398,51.9214595 25.1091814,52.0910001 25.4926029,52.2355442 C26.6888779,52.7148222 27.29724,54.1287471 26.8565609,55.4035615 Z" id="Path" fill="#4C8056"></path>
                    <path d="M54.9928759,95.0005532 C55.1366381,102.489905 53.1018525,109.858676 49.137338,116.213009 C45.5189584,121.642514 40.5204634,125 35,125 C29.4795399,125 24.4810448,121.642514 20.8626653,116.213009 C16.8970452,109.858676 14.8633654,102.489905 15.0071276,95.0005532 C14.8633654,87.5112008 16.8970452,80.1413243 20.8626653,73.7869905 C24.4810448,68.3585928 29.4795399,65 35,65 C40.5204634,65 45.5189584,68.3585928 49.137338,73.7869905 C53.1018525,80.1413243 55.1366381,87.5112008 54.9928759,95.0005532 L54.9928759,95.0005532 Z" id="Path" fill="#E4C05C"></path>
                    <path d="M34.5,127 C28.299095,127 22.6754799,123.41092 18.6023679,117.617197 C14.15656,110.897611 11.8595591,103.019062 12.006647,95 C11.8595591,86.9809381 14.15656,79.1023896 18.6023679,72.3828036 C22.6754799,66.5879912 28.299095,63 34.5,63 C40.700908,63 46.3245233,66.5879912 50.3976351,72.3828036 C54.8423371,79.1023896 57.1404436,86.9809381 56.9933559,95 C57.1404436,103.019062 54.8423371,110.897611 50.3976351,117.617197 C46.3245233,123.41092 40.700908,127 34.5,127 Z M34.5000013,67.9223229 C29.6759682,67.9223229 25.3031514,70.9591532 22.1346837,75.8618694 C18.6499226,81.6468787 16.8727053,88.2749677 17.005416,95.0000001 C16.8727053,101.725032 18.6499226,108.353122 22.1346837,114.137041 C25.3031514,119.039758 29.6759682,122.076588 34.5000013,122.076588 C39.3229289,122.076588 43.6968518,119.039758 46.8642134,114.137041 C50.3500806,108.353122 52.1272976,101.725032 51.994587,95.0000001 C52.1272976,88.2749677 50.3500806,81.6468787 46.8642134,75.8618694 C43.6968518,70.9591532 39.3229289,67.9223229 34.5000013,67.9223229 Z" id="Shape" fill="#D25627"></path>
                    <path d="M12.6666667,138 L10.3333333,138 C9.04483776,138 8,136.88139 8,135.500553 C8,134.11861 9.04483776,133 10.3333333,133 L12.6666667,133 C13.9551622,133 15,134.11861 15,135.500553 C15,136.88139 13.9551622,138 12.6666667,138 Z" id="Path" fill="#4C8056"></path>
                    <path d="M60.4703907,138 L22.5296093,138 C21.1316085,138 20,136.88139 20,135.500553 C20,134.11861 21.1316085,133 22.5296093,133 L60.4703907,133 C61.8683915,133 63,134.11861 63,135.500553 C63,136.88139 61.8683915,138 60.4703907,138 Z" id="Path" fill="#4C8056"></path>
                    <g id="Group" transform="translate(20.000000, 80.000000)" fill="#D25627">
                        <path d="M14.9624633,7.52702858 C13.6016446,7.52702858 12.4981605,6.42354417 12.4981605,5.06272546 L12.4981605,2.59842234 C12.4981605,1.23760363 13.6016446,0.135209552 14.9624633,0.135209552 C16.323282,0.135209552 17.4267667,1.23760363 17.4267667,2.59842234 L17.4267667,5.06272546 C17.4267667,6.42354417 16.323282,7.52702858 14.9624633,7.52702858 L14.9624633,7.52702858 Z" id="Path"></path>
                        <path d="M14.9624633,29.704666 C13.6016446,29.704666 12.4981605,28.6011819 12.4981605,27.2403632 L12.4981605,24.7760598 C12.4981605,23.4152411 13.6016446,22.311757 14.9624633,22.311757 C16.323282,22.311757 17.4267667,23.4152411 17.4267667,24.7760598 L17.4267667,27.2403632 C17.4267667,28.6011819 16.323282,29.704666 14.9624633,29.704666 Z" id="Path"></path>
                        <path d="M7.992629,10.4133198 C7.33838924,10.4144067 6.71140967,10.1548915 6.25017057,9.69147173 L5.37894121,8.82024238 L4.50771213,7.95010363 C3.87200909,7.32966604 3.61903638,6.41591131 3.84474916,5.55776674 C4.07155228,4.69853185 4.7410575,4.02902663 5.6002924,3.80222351 C6.45843696,3.57651072 7.37219169,3.82948343 7.992629,4.46518647 L8.86276803,5.33641583 L9.73399739,6.20764491 C10.4383954,6.9120432 10.6499331,7.97191162 10.2682931,8.89220889 C9.88665333,9.81359649 8.98816406,10.4133198 7.992629,10.4133198 Z" id="Path"></path>
                        <path d="M23.6747563,26.0965338 C23.0205166,26.0965338 22.3935367,25.8370188 21.9322976,25.3746894 L20.1898392,23.6322307 C19.5497745,23.0128837 19.2924402,22.096948 19.518153,21.2355325 C19.7438658,20.3741166 20.4166423,19.7013402 21.2780579,19.4756274 C22.1394737,19.2499149 23.0554094,19.5072489 23.6747563,20.1473135 L25.4172151,21.8897722 C26.1216131,22.5941703 26.3320601,23.6540387 25.9504204,24.5754263 C25.5698707,25.4957238 24.6713814,26.0954435 23.6747563,26.0965338 Z" id="Path"></path>
                        <path d="M5.10525084,17.3842411 L2.64203833,17.3842411 C1.28012928,17.3842411 0.177735206,16.2807566 0.177735206,14.9199379 C0.177735206,13.5591192 1.28012928,12.4556348 2.64203833,12.4556348 L5.10525084,12.4556348 C6.46606955,12.4556348 7.56955423,13.5591192 7.56955423,14.9199379 C7.56955423,16.2807566 6.46606955,17.3842411 5.10525084,17.3842411 Z" id="Path"></path>
                        <path d="M27.2828886,17.3842411 L24.8185855,17.3842411 C23.4577667,17.3842411 22.3542823,16.2807566 22.3542823,14.9199379 C22.3542823,13.5591192 23.4577667,12.4556348 24.8185855,12.4556348 L27.2828886,12.4556348 C28.6437073,12.4556348 29.7471917,13.5591192 29.7471917,14.9199379 C29.7471917,16.2807566 28.6437073,17.3842411 27.2828886,17.3842411 Z" id="Path"></path>
                        <path d="M6.25017057,26.0965338 C5.25354518,26.0954435 4.3550559,25.4957238 3.97341618,24.5754263 C3.59286679,23.6540387 3.80331384,22.5941703 4.50771213,21.8897722 L6.25017057,20.1473135 C6.86842721,19.5072489 7.78436289,19.2499149 8.64686877,19.4756274 C9.5082846,19.7013402 10.1810611,20.3741166 10.4067739,21.2355325 C10.6313963,22.096948 10.3751524,23.0128837 9.73399739,23.6322307 L8.86276803,24.50346 L7.992629,25.3746894 C7.53029957,25.8370188 6.90332,26.0965338 6.25017057,26.0965338 L6.25017057,26.0965338 Z" id="Path"></path>
                    </g>
                    <path d="M92.0002767,130 C87.4568837,130.151633 82.9311908,130.6489 78.4619171,131.486226 C75.3444882,131.992412 72.3210909,132.978026 69.5001383,134.40962 C68.8065158,134.786472 68.1814813,135.278164 67.6504785,135.864627 C67.2522263,136.290537 67.0210189,136.848011 67,137.432244 C67.0099562,137.900522 67.1637259,138.354306 67.4402897,138.730043 C67.7931854,139.211701 68.2279439,139.625347 68.724653,139.952026 C72.0511642,141.863047 75.7172963,143.095065 79.5161791,143.577837 C85.291941,144.557877 91.1418221,145.030615 96.9994468,144.991591 C104.132585,145.088592 111.252448,144.346036 118.215222,142.780649 C123.64362,141.413723 127,139.523886 127,137.432244 C127,135.555786 124.299629,133.842111 119.824825,132.525358 C113.999281,130.993419 108.017755,130.146058 101.999723,130 L92.0002767,130 Z" id="Path" fill="#41767F"></path>
                    <path d="M41.208793,90 C40.3152412,90 39.5096757,89.4623102 39.1684836,88.636228 C38.8263137,87.8111235 39.0149961,86.8608845 39.6465436,86.229347 L41.208793,84.6671231 C41.7640857,84.0971752 42.583338,83.8703692 43.3537088,84.0727349 C44.1231021,84.2760782 44.7243433,84.8763319 44.9267121,85.6466902 C45.1300587,86.416071 44.9032491,87.2353098 44.3332922,87.7915712 L43.5521674,88.5717055 L42.7710426,89.3528176 C42.3565283,89.7683027 41.7953698,90.0009745 41.208793,90 Z" id="Path" fill="#D25627"></path>
                    <path d="M45,94.9995119 C45,99.7694205 41.6304862,103.875613 36.951231,104.807028 C32.2730822,105.737337 27.588296,103.232914 25.7619484,98.8258371 C23.9367072,94.4187601 25.4787594,89.3357986 29.4456174,86.6853577 C33.411369,84.0349168 38.6979317,84.555934 42.0718625,87.9287198 C43.9502019,89.8015062 45.0033109,92.3468585 45,94.9995119 L45,94.9995119 Z" id="Path" fill="#F0C419"></path>
                    <polygon id="Path" fill="#E57E25" points="44 23 39.7508059 27.9994467 35.5005372 33 31.2502687 27.9994467 27 23"></polygon>
                    <path d="M35,33 L20.239306,33 C19.8582864,33 19.4783557,32.9756612 19.100602,32.9280895 C18.7304688,32.8816243 18.362513,32.8141387 18,32.7256334 L22.1944802,27.8622637 L26.3889602,23 L30.6944802,27.9994467 L35,33 Z" id="Path" fill="#D25627"></path>
                    <path d="M53,32.7256334 C52.637464,32.8141387 52.2705733,32.8816243 51.8993278,32.9280895 C51.5215499,32.9756612 51.1415948,33 50.7616395,33 L36,33 L40.3057958,27.9994467 L44.6105029,23 L48.8052514,27.8622637 L53,32.7256334 Z" id="Path" fill="#D25627"></path>
                    <path d="M114.827898,87 C115.127465,89.6124018 115.03554,92.256703 114.555367,94.8416059 C114.1682,97.8455933 112.363225,100.467895 109.720111,101.864842 C106.053924,103.516981 104.220831,107.656126 103.304825,111.381686 C102.746787,113.686099 102.439649,116.046611 102.387738,118.419222 L102.387738,130.152482 C102.387738,131.438334 101.885935,132.670287 100.991559,133.579953 C100.098264,134.488519 98.8859354,135 97.621696,135 L97.3772834,135 C96.1141254,135 94.9017966,134.488519 94.0074202,133.579953 C93.1141253,132.670287 92.6123229,131.438334 92.6123229,130.152482 L92.6123229,118.419222 C92.5604123,116.046611 92.2532745,113.686099 91.6952356,111.381686 C90.7792296,107.656126 88.9461364,103.516981 85.2799503,101.864842 C82.6368355,100.467895 80.830779,97.8455933 80.4436125,94.8416059 C79.9645209,92.256703 79.8725959,89.6124018 80.1721633,87 L114.827898,87 Z" id="Path" fill="#B0D3F0"></path>
                    <path d="M140,63 C139.647101,64.8221251 139.10503,66.6022095 138.381532,68.3114888 C137.662459,70.0207684 136.811739,71.6725186 135.837118,73.2501446 C134.155593,75.9805666 132.050368,78.4266614 129.599987,80.4966043 C127.154031,82.5709726 124.398321,84.250381 121.43242,85.4717689 C118.844862,86.5028682 116.133403,87.1910054 113.36663,87.518479 C110.589901,87.8470589 107.796577,88.0074766 104.999935,87.9997325 L90.0000652,87.9997325 C87.203423,88.0074766 84.4089933,87.8459526 81.6322641,87.5173725 C78.8654912,87.1898989 76.1540315,86.501762 73.5664737,85.4706627 C70.6005728,84.2481684 67.8448624,82.5698661 65.3989067,80.4954981 C62.9496325,78.4255551 60.8444069,75.9805666 59.1628816,73.2501446 C58.1882607,71.6725186 57.3375414,70.0207684 56.6184682,68.3114888 C55.8949697,66.6022095 55.3528991,64.8221251 55,63 L140,63 Z" id="Path" fill="#90BAE1"></path>
                    <path d="M140,62.5005524 C140,64.569046 135.243053,66.4419609 127.552287,67.7966473 C117.612481,69.3557523 107.560942,70.0905539 97.4994468,69.9911069 C87.4390578,70.0905539 77.3875189,69.3557523 67.4477126,67.7966473 C59.7569467,66.4419609 55,64.569046 55,62.5005524 C55,60.430954 59.7569467,58.5591439 67.4477126,57.2033527 C77.3875189,55.6442477 87.4390578,54.9094464 97.4994468,55.008893 C107.560942,54.9094464 117.612481,55.6442477 127.552287,57.2033527 C135.243053,58.5591439 140,60.430954 140,62.5005524 Z" id="Path" fill="#41767F"></path>
                </g>
            </g>
        </g>
    </g>
</svg>