<?xml version="1.0" encoding="UTF-8"?>
<svg width="176px" height="196px" viewBox="0 0 176 196" version="1.1" xmlns="http://www.w3.org/2000/svg" xmlns:xlink="http://www.w3.org/1999/xlink">
    <!-- Generator: Sketch 60 (88103) - https://sketch.com -->
    <title>Vodka</title>
    <desc>Created with Sketch.</desc>
    <defs>
        <linearGradient x1="90.0277008%" y1="5.15213816%" x2="13.6384392%" y2="100%" id="linearGradient-1">
            <stop stop-color="#19B300" offset="0%"></stop>
            <stop stop-color="#225809" offset="100%"></stop>
        </linearGradient>
    </defs>
    <g id="Page-1" stroke="none" stroke-width="1" fill="none" fill-rule="evenodd">
        <g id="Mobile" transform="translate(-19.000000, -25.000000)">
            <g id="Vodka" transform="translate(22.000000, 28.000000)">
                <rect id="Rectangle" stroke="#858585" stroke-width="5" fill="url(#linearGradient-1)" x="0" y="0" width="170" height="190" rx="15"></rect>
                <g id="vodka" transform="translate(39.000000, 12.000000)" fill-rule="nonzero">
                    <path d="M43.3312171,152.643585 C42.507412,152.046674 42.0747521,151.046094 42.0922661,150.028978 L43.7187947,56.4734413 C43.7781476,55.0315814 43.2420256,53.6286293 42.2362698,52.5933564 L32.6940768,42.7733403 C31.2819321,41.3201323 30.4918576,39.3734431 30.4918576,37.347317 L30.4918576,0 L22.2265625,0 L13.9612674,0 L13.9612674,37.3476412 C13.9612674,39.3737673 13.1711929,41.3201323 11.7590482,42.7736645 L2.2168552,52.5936806 C1.21109943,53.6289535 0.674977442,55.0319056 0.73433033,56.4737655 L2.36085893,150.029302 C2.37869723,151.046418 1.94603738,152.046998 1.12190793,152.643909 C0.56275832,153.049199 0.206965324,153.714199 0.227398285,154.462527 L0.445349875,162.52099 C0.497567443,164.457628 2.08323012,166 4.0207938,166 L22.2265625,166 L40.4323312,166 C42.3702192,166 43.9555576,164.457304 44.0077751,162.52099 L44.2257267,154.462527 C44.2461597,153.714199 43.8903667,153.048875 43.3312171,152.643585 Z" id="Path" fill="#CDEAE0"></path>
                    <path d="M43.3366426,152.643585 C42.5178294,152.046674 42.0877913,151.046094 42.1051992,150.028978 L43.7218716,56.4734413 C43.7808648,55.0315814 43.2479915,53.6286293 42.2483303,52.5933564 L32.7639597,42.7733403 C31.3603722,41.3201323 30.5750852,39.3734431 30.5750852,37.347317 L30.5750852,0 L22.359875,0 L14.1446648,0 L14.1446648,37.3476412 C14.1446648,38.6400302 13.8222974,39.8983747 13.2265625,41.0185965 C13.5647259,41.6547397 13.9889613,42.2471117 14.4973347,42.7733403 L23.9817053,52.5933564 C24.9813665,53.6286293 25.5142398,55.0315814 25.4552466,56.4734413 L23.8385742,150.028978 C23.820844,151.046094 24.250882,152.046674 25.0700175,152.643585 C25.6257789,153.048875 25.9794159,153.713875 25.9591068,154.462203 L25.6489893,166 L40.4553229,166 C42.381468,166 43.9571998,164.457304 44.0091009,162.52099 L44.2257318,154.462527 C44.2460409,153.714199 43.8924039,153.048875 43.3366426,152.643585 Z" id="Path" fill="#B6D1C6"></path>
                    <path d="M29.8828457,32 L14.5702793,32 C13.8280934,32 13.2265625,31.3916313 13.2265625,30.6410088 L13.2265625,1.35899116 C13.2265625,0.608368699 13.8280934,0 14.5702793,0 L29.8828457,0 C30.6250316,0 31.2265625,0.608368699 31.2265625,1.35899116 L31.2265625,30.6410088 C31.2262436,31.3916313 30.6247126,32 29.8828457,32 Z" id="Path" fill="#E52D15"></path>
                    <path d="M12.423179,72.7261936 C19.0910928,69.0121622 26.3580692,69.0121622 33.0286234,72.7342187 C34.3534925,73.4731729 36.0113943,72.5881613 36.0744361,71.1041538 L36.2236242,67.5753425 C36.281055,66.2184531 35.4925367,64.9501612 34.2158566,64.4009211 C26.7792284,61.2030663 18.6798354,61.1988932 11.2392464,64.393217 C9.96124612,64.941815 9.17206773,66.21107 9.22949853,67.5686014 L9.37868658,71.0958077 C9.44139837,72.5788522 11.09864,73.4641848 12.423179,72.7261936 Z" id="Path" fill="#FC502A"></path>
                    <g id="Group" transform="translate(10.226562, 135.000000)" fill="#FFFFFF">
                        <path d="M21.24,5.15180488 L2.52810811,5.15180488 C1.14421622,5.15180488 0.0220540541,4.05473171 0.0220540541,2.70178049 C0.0220540541,1.34882927 1.14421622,0.251756098 2.52810811,0.251756098 L21.24,0.251756098 C22.6238919,0.251756098 23.7460541,1.34882927 23.7460541,2.70178049 C23.7460541,4.05473171 22.6242162,5.15180488 21.24,5.15180488 Z" id="Path"></path>
                        <path d="M21.24,12.7193902 L2.52810811,12.7193902 C1.14421622,12.7193902 0.0220540541,11.6223171 0.0220540541,10.2693659 C0.0220540541,8.91641463 1.14421622,7.81934146 2.52810811,7.81934146 L21.24,7.81934146 C22.6238919,7.81934146 23.7460541,8.91641463 23.7460541,10.2693659 C23.7460541,11.6226341 22.6242162,12.7193902 21.24,12.7193902 Z" id="Path"></path>
                    </g>
                    <path d="M32.334713,105 L13.118412,105 C12.2381414,105 11.5202667,104.308531 11.5042558,103.444915 L11.2268431,88.6131077 C11.2101787,87.7270525 11.9378561,87 12.8409993,87 L32.6121257,87 C33.5152689,87 34.2429463,87.7270525 34.2262819,88.6131077 L33.9488692,103.444915 C33.9328583,104.30821 33.2146569,105 32.334713,105 Z" id="Path" fill="#FC502A"></path>
                    <polygon id="Path" fill="#4A4256" points="13.2265625 6 13.2265625 11 13.2265625 11 31.2265625 11 31.2265625 6"></polygon>
                    <path d="M86.5867611,166 L63.866042,166 C61.9896826,166 60.4339364,164.54187 60.3071075,162.664318 L57.231346,117.192361 C57.1511927,116.00642 58.0885677,115 59.2738061,115 L91.1793189,115 C92.3645573,115 93.3019323,116.00642 93.221779,117.192361 L90.1460175,162.664318 C90.0188667,164.54187 88.4631205,166 86.5867611,166 Z" id="Path" fill="#E5F9F6"></path>
                    <path d="M91.2087129,115 L75.6267816,115 L72.2265625,166 L86.6824905,166 C88.5318772,166 90.0652595,164.54187 90.1902653,162.664318 L93.2218126,117.192361 C93.301131,116.00642 92.3769135,115 91.2087129,115 Z" id="Path" fill="#D6E5E2"></path>
                    <path d="M58.2265625,124 L60.818762,162.639154 C60.9458148,164.531196 62.5000409,166 64.3749547,166 L87.0781703,166 C88.9530841,166 90.5076319,164.53087 90.634363,162.639154 L93.2265625,124 L58.2265625,124 Z" id="SVGCleanerId_0" fill="#CDEAE0"></path>
                    <path d="M58.2265625,124 L60.818762,162.639154 C60.9458148,164.531196 62.5000409,166 64.3749547,166 L87.0781703,166 C88.9530841,166 90.5076319,164.53087 90.634363,162.639154 L93.2265625,124 L58.2265625,124 Z" id="SVGCleanerId_0_1_" fill="#CDEAE0"></path>
                    <path d="M75.0708063,124 L72.2265625,166 L87.0202018,166 C88.9127927,166 90.4819971,164.530882 90.6099231,162.63918 L93.2265625,124 L75.0708063,124 L75.0708063,124 Z" id="Path" fill="#B6D1C6"></path>
                    <path d="M89.8974256,158.307572 L61.5560265,158.307572 C61.0780868,158.307572 60.6259905,158.196809 60.2265625,158 L60.5648169,162.767522 C60.694034,164.587297 62.2747353,166 64.1815871,166 L87.2715379,166 C89.1783897,166 90.7594182,164.586984 90.8883081,162.767522 L91.2265625,158 C90.8274616,158.196809 90.3750382,158.307572 89.8974256,158.307572 Z" id="Path" fill="#DFEDE7"></path>
                    <path d="M90.8857997,162.767023 L90.9550068,161.80054 L91.2265625,158 C90.8245019,158.196801 90.3687234,158.30756 89.8872393,158.30756 L72.776265,158.30756 L72.2265625,166 L87.2422078,166 C89.1632007,165.999687 90.7559539,164.586726 90.8857997,162.767023 Z" id="Path" fill="#D7E0DC"></path>
                    <g id="Group" transform="translate(24.226562, 62.000000)" fill="#E52D15">
                        <path d="M8.94205714,2.56092481 C6.33191429,1.37373684 3.63565714,0.626894737 0.917085714,0.314255639 L0.781,8.3652782 C3.16265714,8.74322556 5.5242,9.6045188 7.81157143,10.9543308 C9.07311429,11.6985865 10.6517714,10.8072256 10.7118,9.31257143 L10.8538571,5.75844361 C10.9088571,4.39181955 10.1580286,3.11410526 8.94205714,2.56092481 Z" id="Path"></path>
                        <path d="M7.51048571,24.7023684 L0.505057143,24.7023684 L0.198314286,42.8558045 L7.24365714,42.8558045 C8.09034286,42.8558045 8.78082857,42.1584286 8.79622857,41.2874361 L9.06305714,26.3289323 C9.07908571,25.4356316 8.37917143,24.7023684 7.51048571,24.7023684 Z" id="Path"></path>
                    </g>
                </g>
            </g>
        </g>
    </g>
</svg>