<?xml version="1.0" encoding="UTF-8"?>
<svg width="176px" height="196px" viewBox="0 0 176 196" version="1.1" xmlns="http://www.w3.org/2000/svg" xmlns:xlink="http://www.w3.org/1999/xlink">
    <!-- Generator: Sketch 60 (88103) - https://sketch.com -->
    <title>Whiskey</title>
    <desc>Created with Sketch.</desc>
    <defs>
        <linearGradient x1="90.0277008%" y1="5.15213816%" x2="13.6384392%" y2="100%" id="linearGradient-1">
            <stop stop-color="#2975FF" offset="0%"></stop>
            <stop stop-color="#0A117C" offset="100%"></stop>
        </linearGradient>
    </defs>
    <g id="Page-1" stroke="none" stroke-width="1" fill="none" fill-rule="evenodd">
        <g id="Mobile" transform="translate(-421.000000, -25.000000)">
            <g id="Whiskey" transform="translate(424.000000, 28.000000)">
                <rect id="Rectangle-Copy-2" stroke="#858585" stroke-width="5" fill="url(#linearGradient-1)" x="0" y="0" width="170" height="190" rx="15"></rect>
                <g id="whiskey" transform="translate(32.000000, 15.000000)" fill-rule="nonzero">
                    <path d="M98.9415747,159 L72.0584253,159 C70.2511445,159 68.7432367,157.594363 68.5846548,155.761194 L65.0087417,114.459943 C64.8943297,113.137689 65.9175966,112 67.2212191,112 L103.778781,112 C105.082403,112 106.10567,113.137689 105.991258,114.459943 L102.415345,155.761194 C102.256457,157.594363 100.748856,159 98.9415747,159 Z" id="Path" fill="#E5F9F6"></path>
                    <path d="M103.70455,112 L88.2059411,112 L84,159 L98.7047843,159 C100.572683,159 102.131166,157.594363 102.295067,155.761194 L105.990919,114.459943 C106.109485,113.137689 105.051897,112 103.70455,112 Z" id="Path" fill="#D6E5E2"></path>
                    <path d="M35.7000018,21.6871705 L35.7000018,10 L17.3003101,10 L17.3003101,21.6871705 C17.3003101,30.9573517 13.217278,39.7547048 6.14395288,45.7257222 L3.10406077,48.2915648 C1.77018918,49.4176585 1,51.0766219 1,52.8250224 L1,153.952054 C1,157.292184 3.70112116,160 7.03299264,160 L45.9670074,160 C49.2988788,160 52,157.292184 52,153.952054 L52,52.8253351 C52,51.0769346 51.2301228,49.4179712 49.8959392,48.2918775 L46.8560471,45.7260349 C39.782722,39.7547048 35.7000018,30.9573517 35.7000018,21.6871705 Z" id="Path" fill="#E5F9F6"></path>
                    <g id="Group" transform="translate(0.000000, 31.000000)" fill="#FD9727">
                        <path d="M65.4249115,95.6603883 L68.0217257,125.439976 C68.1818584,127.2776 69.7045133,128.687206 71.529469,128.687206 L98.675531,128.687206 C100.500487,128.687206 102.023142,127.277913 102.183274,125.439976 L104.780088,95.6603883 L65.4249115,95.6603883 L65.4249115,95.6603883 Z" id="Path"></path>
                        <path d="M5.23420354,14.2701553 L2.21584071,16.8391966 C0.891415929,17.9666942 0.126681416,19.6277257 0.126681416,21.3783058 L0.126681416,122.631408 C0.126681416,125.975701 2.80867257,128.686893 6.1169469,128.686893 L44.775531,128.686893 C48.0838053,128.686893 50.7657965,125.975701 50.7657965,122.631408 L50.7657965,21.3786189 C50.7657965,19.6280388 50.0013717,17.9670073 48.6766372,16.8395097 L45.6582743,14.2704684 C41.2312389,10.5022282 37.985531,5.60899515 36.1896903,0.182228155 L14.7024779,0.182228155 C12.9069469,5.60868204 9.66123894,10.501915 5.23420354,14.2701553 Z" id="Path"></path>
                    </g>
                    <path d="M51,153.968237 L51,53.1121063 C51,52.4584054 50.8915812,51.8168678 50.6856792,51.2115084 C50.616941,51.0097219 50.5375797,50.811678 50.4475952,50.618936 C50.2676263,50.2328283 50.046102,49.8663691 49.7858343,49.5261078 C49.5255667,49.1858465 49.2268682,48.8717831 48.8928633,48.5910909 L45.8480758,46.0321139 C45.5934322,45.8178522 45.3434753,45.5992242 45.0966428,45.3777893 C45.0207184,45.3094875 44.9460438,45.2402501 44.8707443,45.1713246 C44.6973367,45.0128894 44.5258037,44.8532068 44.3564579,44.6913409 C44.2758468,44.6143065 44.1955482,44.5369602 44.1158744,44.4593021 C43.9424668,44.2899511 43.7715588,44.118417 43.6025254,43.9456354 C43.5394113,43.8810762 43.4753599,43.8174526 43.4131831,43.7522697 C43.1822854,43.5121219 42.9548246,43.2691672 42.732363,43.0221581 C42.7192402,43.0074997 42.7064299,42.9922176 42.6929947,42.9775592 C42.4849056,42.7458323 42.2811907,42.5109865 42.0806003,42.2736456 C42.0224853,42.2047201 41.9653077,42.1351708 41.9078176,42.0656215 C41.749095,41.8747509 41.5928719,41.6820089 41.438836,41.4877075 C41.3810334,41.4147276 41.3235434,41.3420595 41.2666782,41.2687676 C41.0985821,41.0523228 40.9336106,40.8340066 40.771451,40.6135073 C40.7383318,40.5685966 40.7042751,40.5239977 40.6711558,40.4787751 C40.4693156,40.2015136 40.2718497,39.9214452 40.0796953,39.638258 C40.075946,39.6326441 40.0721966,39.6267184 40.0684473,39.6211045 C39.8859787,39.3519519 39.7088218,39.0793686 39.5347893,38.8049141 C39.4982331,38.7472162 39.4623018,38.6888946 39.4263705,38.6308849 C39.2807706,38.3975985 39.1382951,38.1624409 38.9989441,37.9257238 C38.9652,37.8683378 38.9311433,37.8109519 38.8977116,37.753254 C38.7352396,37.4728737 38.5762045,37.1906222 38.422481,36.9052518 C38.419669,36.9002617 38.416857,36.8952716 38.414045,36.8902815 C38.0872263,36.2827389 37.7813416,35.6642805 37.4954534,35.0367775 C37.4745195,34.9909311 37.4542105,34.9447728 37.4332766,34.8989264 C37.3104853,34.6260313 37.1914433,34.3515767 37.0767756,34.0752508 C37.0599035,34.0350183 37.0430314,33.9947858 37.0261593,33.9545532 C36.7618299,33.3114562 36.5181219,32.6599385 36.29691,32 L22,32 C22.3315053,34.7220904 23.0038894,37.3961512 24.0427728,39.9435887 C25.0041695,42.3004673 26.2964467,44.6255342 27.971158,46.0333614 L28.82976,46.7550522 C31.5521031,49.0430054 33.1233947,52.4144303 33.1233947,55.9667458 L33.1233947,160 L44.9582292,160 C45.5840588,160 46.1873923,159.905188 46.7551069,159.728664 C49.2140579,158.965181 51,156.674733 51,153.968237 Z" id="Path" fill="#E57F23"></path>
                    <path d="M36.238548,17 L16.761452,17 C15.7887665,17 15,16.212092 15,15.240465 L15,1.75953504 C15,0.787908048 15.7887665,0 16.761452,0 L36.238548,0 C37.2112335,0 38,0.787908048 38,1.75953504 L38,15.240465 C38,16.2124076 37.2115496,17 36.238548,17 Z" id="Path" fill="#4A4256"></path>
                    <path d="M36.2425952,0 L20,0 L20,17 L36.2425952,17 C37.2130458,17 38,16.212092 38,15.240465 L38,1.75953504 C38,0.787908048 37.2133611,0 36.2425952,0 Z" id="Path" fill="#352F3F"></path>
                    <polygon id="Path" fill="#4A4256" points="1 101.794296 52 125 52 90.2057037 1 67"></polygon>
                    <polygon id="Path" fill="#352F3F" points="51 125 51 90.1372776 33 82 33 116.862722"></polygon>
                    <polygon id="Path" fill="#FDC74F" points="52 99 52 89.8085137 1 66 1 74.9375918"></polygon>
                    <polygon id="Path" fill="#E5A535" points="51 99 51 89.5587174 33 81 33 90.3498267"></polygon>
                    <polygon id="Path" fill="#FDC74F" points="1 93 1 101.449994 52 125 52 116.801144"></polygon>
                    <polygon id="Path" fill="#E5A535" points="51 125 51 116.567375 33 108 33 116.523205"></polygon>
                    <path d="M40.5714734,140 L11.4285266,140 C10.0873718,140 9,138.880626 9,137.5 C9,136.119374 10.0873718,135 11.4285266,135 L40.5714734,135 C41.9126281,135 43,136.119374 43,137.5 C43,138.880626 41.9129422,140 40.5714734,140 Z" id="Path" fill="#FFFFFF"></path>
                    <path d="M40.5714734,150 L11.4285266,150 C10.0873718,150 9,148.880626 9,147.5 C9,146.119374 10.0873718,145 11.4285266,145 L40.5714734,145 C41.9126281,145 43,146.119374 43,147.5 C43,148.880626 41.9129422,150 40.5714734,150 Z" id="Path" fill="#E9EAEB"></path>
                    <path d="M40.5714734,150 L11.4285266,150 C10.0873718,150 9,148.880626 9,147.5 C9,146.119374 10.0873718,145 11.4285266,145 L40.5714734,145 C41.9126281,145 43,146.119374 43,147.5 C43,148.880626 41.9129422,150 40.5714734,150 Z" id="Path" fill="#FFFFFF"></path>
                    <path d="M86.9546094,127 L84,160 L98.7377786,160 C100.609868,160 102.171849,158.591851 102.336117,156.755406 L105,127 L86.9546094,127 L86.9546094,127 L86.9546094,127 Z" id="Path" fill="#E57F23"></path>
                    <path d="M34.4388662,17 L22,17 L22.0084174,27.9526054 C22.0093193,29.3071846 22.0883831,30.6592495 22.2441056,32 L36,32 C34.9775821,28.8052675 34.4385656,25.4263624 34.4385656,21.9820856 L34.4385656,17 L34.4388662,17 Z" id="Path" fill="#D6E5E2"></path>
                    <path d="M100.609274,151.727173 L70.3907264,151.727173 C69.4943966,151.727173 68.6640051,151.456718 68,151 L68.5080948,156.146611 C68.6673944,157.761358 70.1821271,159 71.9975878,159 L99.0024122,159 C100.817873,159 102.332606,157.761633 102.491905,156.146611 L103,151 C102.335995,151.456718 101.505603,151.727173 100.609274,151.727173 Z" id="Path" fill="#D7E0DC"></path>
                    <path d="M100.516729,151.727173 L84.7458135,151.727173 L84,159 L98.847131,159 C99.9079147,159 100.87011,158.608213 101.538141,157.977886 C102.05797,157.487602 102.399828,156.853149 102.472169,156.146611 L103,151 C102.310523,151.456718 101.447876,151.727173 100.516729,151.727173 Z" id="Path" fill="#CBD1CF"></path>
                </g>
            </g>
        </g>
    </g>
</svg>