<?xml version="1.0" encoding="UTF-8"?>
<svg width="126px" height="140px" viewBox="0 0 126 140" version="1.1" xmlns="http://www.w3.org/2000/svg" xmlns:xlink="http://www.w3.org/1999/xlink">
    <!-- Generator: Sketch 60 (88103) - https://sketch.com -->
    <title>Brandy</title>
    <desc>Created with Sketch.</desc>
    <defs>
        <linearGradient x1="90.0277008%" y1="5.15213816%" x2="13.6384392%" y2="100%" id="linearGradient-1">
            <stop stop-color="#FEE366" offset="0%"></stop>
            <stop stop-color="#7A5D01" offset="100%"></stop>
        </linearGradient>
    </defs>
    <g id="Page-1" stroke="none" stroke-width="1" fill="none" fill-rule="evenodd">
        <g id="Mobile" transform="translate(-1024.000000, -25.000000)">
            <g id="Brandy" transform="translate(1027.000000, 28.000000)">
                <rect id="Rectangle-Copy-5" stroke="#858585" stroke-width="5" fill="url(#linearGradient-1)" x="0" y="0" width="120" height="134.117647" rx="15"></rect>
                <g id="drink" transform="translate(12.705882, 17.647059)" fill-rule="nonzero">
                    <rect id="Rectangle" fill="#B3CCE2" x="28.9411765" y="21.8823529" width="12.7058824" height="13.4117647"></rect>
                    <rect id="Rectangle" fill="#210035" opacity="0.1" x="28.9411765" y="21.8823529" width="6.35294118" height="13.4117647"></rect>
                    <rect id="Rectangle" fill="#B3CCE2" x="31.0588235" y="12" width="9.88235294" height="8.47058824"></rect>
                    <path d="M46.5882353,23.6690647 C46.5882353,24.2394677 46.1599092,24.7058824 45.6367743,24.7058824 L26.3630383,24.7058824 C25.8399034,24.7058824 25.4117647,24.2392634 25.4117647,23.6690647 L25.4117647,20.8017278 C25.4117647,20.2315292 25.8399034,19.7647059 26.3630383,19.7647059 L45.6369617,19.7647059 C46.1600966,19.7647059 46.5882353,20.2313249 46.5882353,20.8017278 L46.5882353,23.6690647 L46.5882353,23.6690647 Z" id="Path" fill="#E2EEFD"></path>
                    <path d="M30.0928753,23.6690647 L30.0928753,20.8017278 C30.0928753,20.2315292 30.5276186,19.7647059 31.0588235,19.7647059 L24.9659483,19.7647059 C24.4347433,19.7647059 24,20.2313249 24,20.8017278 L24,23.6690647 C24,24.2394677 24.4347433,24.7058824 24.9659483,24.7058824 L31.0588235,24.7058824 C30.5276186,24.7058824 30.0928753,24.2392634 30.0928753,23.6690647 Z" id="Path" fill="#210035" opacity="0.1"></path>
                    <path d="M49.4117647,13.1216914 C49.4117647,13.6696142 48.9706173,14.1176471 48.4311582,14.1176471 L22.8629594,14.1176471 C22.3236935,14.1176471 21.8823529,13.6694179 21.8823529,13.1216914 L21.8823529,0.995955668 C21.8823529,0.448032865 22.3236935,0 22.8629594,0 L48.4311582,0 C48.9706173,0 49.4117647,0.448229112 49.4117647,0.995955668 L49.4117647,13.1216914 L49.4117647,13.1216914 Z" id="Path" fill="#C1262C"></path>
                    <path d="M27.2550521,13.1216914 L27.2550521,0.995955668 C27.2550521,0.448032865 27.6962286,0 28.2352941,0 L22.1567126,0 C21.6176471,0 21.1764706,0.448229112 21.1764706,0.995955668 L21.1764706,13.1216914 C21.1764706,13.6696142 21.6176471,14.1176471 22.1567126,14.1176471 L28.2352941,14.1176471 C27.6962286,14.1176471 27.2550521,13.6696142 27.2550521,13.1216914 Z" id="Path" fill="#210035" opacity="0.1"></path>
                    <path d="M69.0688543,49.1931031 L42.1517208,33.1764706 L28.9055698,33.1764706 L1.50815005,49.2074117 C0.428225698,49.8393139 -0.219575403,51.3542937 0.0684427997,52.5738185 L10.4641538,96.6058775 C10.7519801,97.8255957 12.0105486,98.8235294 13.2608662,98.8235294 L57.9075253,98.8235294 C59.1580347,98.8235294 60.4047065,97.8228887 60.6783334,96.5998834 L70.526023,52.5798127 C70.7998418,51.3570007 70.1437897,49.832933 69.0688543,49.1931031 Z" id="Path" fill="#E2EEFD"></path>
                    <path d="M69.0688543,49.3540603 L63.2154264,45.8823529 L7.48553515,45.8823529 L1.50815005,49.3683226 C0.428225698,49.9981755 -0.219575403,51.5082419 0.0684427997,52.7238117 L10.4641538,96.6130696 C10.7519801,97.8288322 12.0105486,98.8235294 13.2608662,98.8235294 L57.9075253,98.8235294 C59.1580347,98.8235294 60.4047065,97.8261339 60.6783334,96.6070949 L70.526023,52.7297864 C70.7998418,51.5109402 70.1437897,49.9918153 69.0688543,49.3540603 Z" id="Path" fill="#FF9300"></path>
                    <path d="M9.88235294,93.8846324 L10.5460038,96.6450959 C10.8341554,97.8431584 12.0933068,98.8235294 13.3442033,98.8235294 L58.0115377,98.8235294 C59.2626262,98.8235294 60.5098752,97.840499 60.7836288,96.6390173 L61.4117647,93.8823529 L9.88235294,93.8846324 Z" id="Path" fill="#F07C3C"></path>
                    <path d="M18.545928,98.6669069 L8.13632627,54.6347182 C7.84792322,53.4149964 8.49658991,51.9002056 9.57795726,51.2683015 L39.5294118,33.1764706 L28.9441935,33.1764706 L1.51016524,49.2072656 C0.428797894,49.8391697 -0.219868801,51.3541538 0.0685342531,52.5736823 L10.478136,96.605871 C10.7663469,97.8255928 12.0265972,98.8235294 13.2785854,98.8235294 L18.5910811,98.8235294 C18.5751334,98.7715153 18.5584172,98.7198879 18.545928,98.6669069 Z" id="Path" fill="#210035" opacity="0.1"></path>
                    <path d="M52.2352941,78.7939662 C52.2352941,79.3278252 51.7953686,79.7647059 51.2574037,79.7647059 L19.3308316,79.7647059 C18.7930593,79.7647059 18.3529412,79.3278252 18.3529412,78.7939662 L18.3529412,59.558975 C18.3529412,59.0249247 18.7930593,58.5882353 19.3308316,58.5882353 L51.2574037,58.5882353 C51.7953686,58.5882353 52.2352941,59.025116 52.2352941,59.558975 L52.2352941,78.7939662 L52.2352941,78.7939662 Z" id="Path" fill="#C1262C"></path>
                    <g id="Group" transform="translate(24.705882, 62.823529)" fill="#FFFFFF">
                        <path d="M19.5823529,2.95546524 L1.66490196,2.95546524 C0.852745098,2.95546524 0.194313725,2.30900535 0.194313725,1.51161497 C0.194313725,0.714224599 0.852745098,0.0677647059 1.66490196,0.0677647059 L19.5823529,0.0677647059 C20.3945098,0.0677647059 21.0529412,0.714224599 21.0529412,1.51161497 C21.0529412,2.30900535 20.3945098,2.95546524 19.5823529,2.95546524 Z" id="Path"></path>
                        <ellipse id="Oval" cx="10.6235294" cy="16.0652406" rx="9.45098039" ry="9.27721925"></ellipse>
                    </g>
                    <g id="Group" transform="translate(30.352941, 75.529412)" fill="#F07C3C">
                        <path d="M8.40513122,3.06938824 L1.54563801,3.06938824 C0.758470588,3.06938824 0.120298643,2.41754118 0.120298643,1.61350588 C0.120298643,0.809470588 0.758470588,0.157623529 1.54563801,0.157623529 L8.40513122,0.157623529 C9.19229864,0.157623529 9.83047059,0.809470588 9.83047059,1.61350588 C9.83047059,2.41754118 9.19229864,3.06938824 8.40513122,3.06938824 Z" id="Path"></path>
                        <path d="M7.08374661,7.73112353 L2.86740271,7.73112353 C2.08023529,7.73112353 1.44206335,7.07927647 1.44206335,6.27524118 C1.44206335,5.47120588 2.08023529,4.81935882 2.86740271,4.81935882 L7.08374661,4.81935882 C7.87091403,4.81935882 8.50908597,5.47120588 8.50908597,6.27524118 C8.50908597,7.07927647 7.87091403,7.73112353 7.08374661,7.73112353 Z" id="Path"></path>
                    </g>
                    <path d="M75.5291055,84.794841 C74.8090993,84.794841 74.1039998,84.7625451 73.4117647,84.7058824 L73.4117647,93.8823529 L77.6470588,93.8823529 L77.6470588,84.7058824 C76.9548238,84.7627385 76.2493158,84.794841 75.5291055,84.794841 Z" id="Path" fill="#B3CCE2"></path>
                    <path d="M57.9246174,70.7426691 C58.9358243,79.0945394 65.8688108,84.7058824 75.176282,84.7058824 C84.4841329,84.7058824 91.4169295,79.0947338 92.4285162,70.7428635 C92.4968795,70.1746509 92.4849159,68.8560164 92.3705973,67.7647059 L57.9825363,67.7647059 C57.8678379,68.8562109 57.8560643,70.1746509 57.9246174,70.7426691 Z" id="Path" fill="#D16605"></path>
                    <path d="M63.9636649,70.7426691 C63.8944885,70.1744564 63.9063692,68.8560164 64.0221104,67.7647059 L57.9834472,67.7647059 C57.867706,68.8562109 57.8558252,70.1746509 57.9250017,70.7426691 C58.9454022,79.0945394 65.9414215,84.7058824 75.3335137,84.7058824 C76.3715437,84.7058824 77.3781473,84.6335432 78.3529412,84.5003379 C70.5087918,83.428279 64.8713903,78.1718258 63.9636649,70.7426691 Z" id="Path" fill="#210035" opacity="0.1"></path>
                    <g id="Group" transform="translate(56.470588, 50.823529)" fill="#E2EEFD">
                        <path d="M19.0954011,35.3568128 C8.89642781,35.3568128 1.29234225,29.2928342 0.173262032,20.2672299 C0.0648770053,19.3943743 0.0951016043,16.639123 0.548470588,15.3539037 L5.19189305,1.75475936 C5.544,0.722695187 6.51522995,0.0290695187 7.60851337,0.0290695187 L30.5828663,0.0290695187 C31.6761497,0.0290695187 32.6473797,0.722695187 32.9994866,1.75495187 L37.6427166,15.3542888 C38.0957005,16.638738 38.1263102,19.3937968 38.0181176,20.2672299 C36.8988449,29.2928342 29.2943743,35.3568128 19.0954011,35.3568128 Z M7.84645989,2.91677005 L3.27850267,16.2951016 C3.27638503,16.301262 3.27426738,16.3074225 3.27214973,16.3137754 C3.04517647,16.9496471 2.94949733,19.1897326 3.03920856,19.9120428 C3.97039572,27.4229519 10.4228663,32.4693048 19.0954011,32.4693048 C27.7681283,32.4693048 34.2207914,27.4231444 35.1521711,19.9122353 C35.2416898,19.1895401 35.1458182,16.9490695 34.9190374,16.3143529 C34.9167273,16.308 34.9148021,16.3016471 34.912492,16.2952941 L30.3447273,2.91677005 L7.84645989,2.91677005 L7.84645989,2.91677005 Z" id="Shape"></path>
                        <polygon id="Path" points="12.298139 46.4919786 19.0954011 40.9735829 25.8932406 46.4919786"></polygon>
                    </g>
                    <path d="M86.0679853,98.8235294 L64.2851507,98.8235294 C63.4777511,98.8235294 62.8235294,98.1914353 62.8235294,97.4117647 C62.8235294,96.6320941 63.4777511,96 64.2851507,96 L86.0677905,96 C86.8751901,96 87.5294118,96.6320941 87.5294118,97.4117647 C87.5294118,98.1914353 86.8751901,98.8235294 86.0679853,98.8235294 Z" id="Path" fill="#B3CCE2"></path>
                </g>
            </g>
        </g>
    </g>
</svg>