<?xml version="1.0" encoding="UTF-8"?>
<svg width="126px" height="140px" viewBox="0 0 126 140" version="1.1" xmlns="http://www.w3.org/2000/svg" xmlns:xlink="http://www.w3.org/1999/xlink">
    <!-- Generator: Sketch 60 (88103) - https://sketch.com -->
    <title>Gin</title>
    <desc>Created with Sketch.</desc>
    <defs>
        <linearGradient x1="90.0277008%" y1="5.15213816%" x2="13.6384392%" y2="100%" id="linearGradient-1">
            <stop stop-color="#FF9700" offset="0%"></stop>
            <stop stop-color="#613204" offset="100%"></stop>
        </linearGradient>
    </defs>
    <g id="Page-1" stroke="none" stroke-width="1" fill="none" fill-rule="evenodd">
        <g id="Mobile" transform="translate(-220.000000, -25.000000)">
            <g id="Gin" transform="translate(223.000000, 28.000000)">
                <rect id="Rectangle-Copy" stroke="#858585" stroke-width="5" fill="url(#linearGradient-1)" x="0" y="0" width="120" height="134.117647" rx="15"></rect>
                <g id="gin" transform="translate(34.588235, 14.117647)" fill-rule="nonzero">
                    <rect id="Rectangle" fill="#3E5F56" x="16.2352941" y="9.17647059" width="14.8235294" height="11.2941176"></rect>
                    <path d="M31.3845832,18.3529412 L16.6154168,18.3529412 C7.4389585,18.3529412 0,25.7599722 0,34.8970458 L0,100.655322 C0,103.931949 2.66773558,106.588235 5.95848655,106.588235 L42.0415134,106.588235 C45.3322644,106.588235 48,103.931949 48,100.655322 L48,34.8970458 C48,25.7599722 40.5610415,18.3529412 31.3845832,18.3529412 Z" id="Path" fill="#639085"></path>
                    <path d="M13.934224,0 L33.360105,0 C34.2474799,0 35.098506,0.355673229 35.7259449,0.988763047 C36.3533838,1.62185286 36.7058824,2.48054357 36.7058824,3.37591041 L36.7058824,9.41169363 C36.7058824,10.4512062 35.870706,11.2941176 34.8402607,11.2941176 L12.453857,11.2941176 C11.423623,11.2941176 10.5882353,10.4514194 10.5882353,9.41169363 L10.5882353,3.37591041 C10.5882353,1.51139799 12.086354,0 13.934224,0 Z" id="Path" fill="#D69564"></path>
                    <path d="M40.9411765,33.3977159 C40.9465678,32.1976194 40.3583975,31.0717365 39.3685092,30.3867689 C34.9149514,27.4793466 29.6767489,25.9929982 24.3529412,26.1258341 C19.0289247,25.9929982 13.790931,27.4793466 9.33737313,30.3867689 C8.34748481,31.0715286 7.75931451,32.1974115 7.76470588,33.3977159 L7.76470588,95.8592745 C7.76470588,97.8863211 9.41504418,99.5294118 11.4509862,99.5294118 L37.2548962,99.5294118 C39.2908382,99.5294118 40.9411765,97.8861132 40.9411765,95.8592745 L40.9411765,33.3977159 Z" id="Path" fill="#FAEDBD"></path>
                    <g id="Group" transform="translate(7.764706, 38.823529)" fill="#BBB084">
                        <ellipse id="Oval" cx="16.5697216" cy="7.45265943" rx="7.31346089" ry="7.37330918"></ellipse>
                        <rect id="Rectangle" x="0.114331079" y="24.0427095" width="32.9109882" height="14.7468272"></rect>
                    </g>
                    <path d="M27.7646348,72 L20.2353652,72 C19.1958526,72 18.3529412,71.0520003 18.3529412,69.8823529 C18.3529412,68.7127056 19.1956394,67.7647059 20.2353652,67.7647059 L27.7646348,67.7647059 C28.8041474,67.7647059 29.6470588,68.7127056 29.6470588,69.8823529 C29.6470588,71.0520003 28.8043606,72 27.7646348,72 Z" id="Path" fill="#8C8463"></path>
                    <g id="Group" transform="translate(12.705882, 82.588235)" fill="#BBB084">
                        <path d="M14.8791118,3.71930689 L7.44324118,3.71930689 C6.41662353,3.71930689 5.58416824,2.89801277 5.58416824,1.88469543 C5.58416824,0.871378096 6.41641294,0.0500839783 7.44324118,0.0500839783 L14.8791118,0.0500839783 C15.9057294,0.0500839783 16.7381847,0.871378096 16.7381847,1.88469543 C16.7381847,2.89801277 15.90594,3.71930689 14.8791118,3.71930689 Z" id="Path"></path>
                        <path d="M20.45612,11.0573371 L1.86623294,11.0573371 C0.839615294,11.0573371 0.00716,10.236043 0.00716,9.22272562 C0.00716,8.20940828 0.839404706,7.38811416 1.86623294,7.38811416 L20.45612,7.38811416 C21.4827376,7.38811416 22.3151929,8.20940828 22.3151929,9.22272562 C22.3151929,10.236043 21.4827376,11.0573371 20.45612,11.0573371 Z" id="Path"></path>
                    </g>
                    <g id="Group" transform="translate(14.823529, 0.000000)" fill="#98623E">
                        <path d="M1.97379464,5.50362672 C2.45084594,5.50383437 2.90834261,5.31077206 3.24565984,4.96662655 C3.58297707,4.62248104 3.77220877,4.1557233 3.77200524,3.66901509 L3.77200524,0 L0.175787738,0 L0.175787738,3.66901509 C0.175584209,4.1557233 0.364815914,4.62248104 0.702133141,4.96662655 C1.03924667,5.31077206 1.49674335,5.50383437 1.97379464,5.50362672 Z" id="Path"></path>
                        <path d="M9.16622899,5.50362672 C9.64328029,5.50383437 10.100777,5.31077206 10.4380942,4.96662655 C10.7754114,4.62248104 10.9646431,4.1557233 10.9644396,3.66901509 L10.9644396,0 L7.36822209,0 L7.36822209,3.66901509 C7.36801856,4.1557233 7.55725026,4.62248104 7.89456749,4.96662655 C8.23168102,5.31077206 8.6891777,5.50383437 9.16622899,5.50362672 Z" id="Path"></path>
                        <path d="M16.3586633,5.50362672 C16.8357146,5.50383437 17.2932113,5.31077206 17.6305285,4.96662655 C17.9678458,4.62248104 18.1570775,4.1557233 18.1568739,3.66901509 L18.1568739,0 L14.5606564,0 L14.5606564,3.66901509 C14.5604529,4.1557233 14.7496846,4.62248104 15.0870018,4.96662655 C15.4243191,5.31077206 15.8818157,5.50383437 16.3586633,5.50362672 Z" id="Path"></path>
                    </g>
                </g>
            </g>
        </g>
    </g>
</svg>