<?xml version="1.0" encoding="UTF-8"?>
<svg width="126px" height="140px" viewBox="0 0 126 140" version="1.1" xmlns="http://www.w3.org/2000/svg" xmlns:xlink="http://www.w3.org/1999/xlink">
    <!-- Generator: Sketch 60 (88103) - https://sketch.com -->
    <title>Rum</title>
    <desc>Created with Sketch.</desc>
    <defs>
        <linearGradient x1="90.0277008%" y1="5.15213816%" x2="13.6384392%" y2="100%" id="linearGradient-1">
            <stop stop-color="#A1FFF1" offset="0%"></stop>
            <stop stop-color="#054245" offset="100%"></stop>
        </linearGradient>
    </defs>
    <g id="Page-1" stroke="none" stroke-width="1" fill="none" fill-rule="evenodd">
        <g id="Mobile" transform="translate(-823.000000, -25.000000)">
            <g id="Rum" transform="translate(826.000000, 28.000000)">
                <rect id="Rectangle-Copy-4" stroke="#858585" stroke-width="5" fill="url(#linearGradient-1)" x="0" y="0" width="120" height="134.117647" rx="15"></rect>
                <g id="rum" transform="translate(31.058824, 9.176471)" fill-rule="nonzero">
                    <path d="M38.5305772,35.9123225 L38.8617321,11.2941176 L20.4318072,11.2941176 L20.7629621,35.9123225 C8.92794723,39.8502268 0.629764486,51.4339258 1.47030312,64.6669889 L3.90824249,103.058824 L55.3859627,103.058824 L57.823902,64.6669889 C58.6637748,51.4339258 50.365814,39.8502268 38.5305772,35.9123225 Z" id="Path" fill="#E6E6E6"></path>
                    <path d="M37.8248775,35.9123823 L38.1560326,11.2941176 L28.9411765,11.2941176 L28.9411765,103.058824 L54.6800494,103.058824 L57.11799,64.6668956 C57.9580852,51.4340234 49.6601202,39.8502962 37.8248775,35.9123823 Z" id="Path" fill="#CCCCCC"></path>
                    <path d="M4.22155224,50.8235294 C2.17136268,55.0497914 1.14793256,59.8526239 1.47020984,64.897616 L3.90815312,103.058824 L55.3859559,103.058824 L57.8238992,64.897616 C58.1461765,59.8528457 57.1229683,55.0497914 55.0725568,50.8235294 L4.22155224,50.8235294 Z" id="Path" fill="#E47700"></path>
                    <path d="M28.9411765,50.8235294 L28.9411765,103.058824 L54.6800739,103.058824 L57.1180168,64.897616 C57.4402941,59.8528457 56.417086,55.0497914 54.3666749,50.8235294 L28.9411765,50.8235294 Z" id="Path" fill="#984D00"></path>
                    <rect id="Rectangle" fill="#723802" x="18.3529412" y="0" width="22.5882353" height="14.1176471"></rect>
                    <rect id="Rectangle" fill="#4D2602" x="28.9411765" y="0" width="11.2941176" height="14.1176471"></rect>
                    <path d="M1.47025839,64.5563368 L2.81174756,85.4117647 L56.4824118,85.4117647 L57.823901,64.5563368 C57.9548538,62.5199096 57.8636308,60.5229072 57.5717614,58.5882353 L1.72239798,58.5882353 C1.43030669,60.5231274 1.33930561,62.5199096 1.47025839,64.5563368 Z" id="Path" fill="#FBBF00"></path>
                    <path d="M28.9411765,85.4117647 L55.7765175,85.4117647 L57.1180182,64.5563368 C57.2489721,62.5199096 57.1577482,60.5229072 56.8658764,58.5882353 L28.9411765,58.5882353 L28.9411765,85.4117647 Z" id="Path" fill="#FFA900"></path>
                    <rect id="Rectangle" fill="#723802" x="0" y="101.647059" width="58.5882353" height="12.7058824"></rect>
                    <rect id="Rectangle" fill="#4D2602" x="28.9411765" y="101.647059" width="29.6470588" height="12.7058824"></rect>
                </g>
            </g>
        </g>
    </g>
</svg>