<?xml version="1.0" encoding="UTF-8"?>
<svg width="126px" height="140px" viewBox="0 0 126 140" version="1.1" xmlns="http://www.w3.org/2000/svg" xmlns:xlink="http://www.w3.org/1999/xlink">
    <!-- Generator: Sketch 60 (88103) - https://sketch.com -->
    <title>Tequila</title>
    <desc>Created with Sketch.</desc>
    <defs>
        <linearGradient x1="90.0277008%" y1="5.15213816%" x2="13.6384392%" y2="100%" id="linearGradient-1">
            <stop stop-color="#FF5959" offset="0%"></stop>
            <stop stop-color="#710707" offset="100%"></stop>
        </linearGradient>
    </defs>
    <g id="Page-1" stroke="none" stroke-width="1" fill="none" fill-rule="evenodd">
        <g id="Mobile" transform="translate(-622.000000, -25.000000)">
            <g id="Tequila" transform="translate(625.000000, 28.000000)">
                <rect id="Rectangle-Copy-3" stroke="#858585" stroke-width="5" fill="url(#linearGradient-1)" x="0" y="0" width="120" height="134.117647" rx="15"></rect>
                <g id="tequila" transform="translate(10.588235, 18.352941)" fill-rule="nonzero">
                    <path d="M35.2941176,17.6470588 L32.0791487,10.331795 L28.8649606,3.01731205 C28.2183746,1.26111779 26.57614,0.0694980796 24.7058823,0 C22.8356247,0.0694980796 21.1926092,1.26111779 20.5468041,3.01731205 L17.3318352,10.331795 L14.1176471,17.6470588 L35.2941176,17.6470588 Z" id="Path" fill="#F29C1F"></path>
                    <path d="M40.8906639,81.1764706 C41.8269542,81.1764706 42.7249807,81.5481796 43.3863968,82.2096025 L45.8821298,84.7053618 L46.7668812,85.5909035 L47.6524136,86.4756642 C48.7792417,87.6025042 49.4117647,89.1299464 49.4117647,90.723765 L49.4117647,94.9414107 L49.1384522,96.8819494 L48.864359,98.8232691 C48.7152084,99.1496856 48.5379458,99.462827 48.3349137,99.7587885 C48.1318816,100.055531 47.9015182,100.333532 47.6469473,100.588105 C46.5185574,101.716507 44.9895695,102.350598 43.3942059,102.352941 L6.01755903,102.352941 C2.6956415,102.349037 0.00390445336,99.6572713 0,96.335319 L0,90.723765 C0,89.1299464 0.632523164,87.6025042 1.75935114,86.4756642 L3.89196908,84.3430238 L6.02458701,82.2096025 C6.686784,81.5481796 7.58481047,81.1764706 8.52031999,81.1764706 L40.8906639,81.1764706 Z" id="Path" fill="#71C285"></path>
                    <path d="M35.2944299,23.2941176 L14.1181156,23.2941176 C10.219106,23.2941176 7.05882353,20.1336952 7.05882353,16.2352941 L42.3529412,16.2352941 C42.3529412,20.1336952 39.1926585,23.2941176 35.2944299,23.2941176 Z" id="Path" fill="#E57E25"></path>
                    <path d="M45.8823529,55.8533162 L45.8823529,86.1174416 C45.8823529,88.0665399 44.3026195,89.6470588 42.352746,89.6470588 L7.05901876,89.6470588 C5.10992605,89.6470588 3.52941176,88.0665399 3.52941176,86.1174416 L3.52941176,53.7004059 C3.5301926,52.2159364 3.79803672,50.7431801 4.32123058,49.35476 C4.84520547,47.9671207 5.61047424,46.6841203 6.58267789,45.5651066 L9.94439423,41.7262576 L13.3061108,37.8881892 L14.479783,36.5474032 L15.6534555,35.2058362 L15.7682459,35.0738661 L15.8830362,34.9411149 C15.334073,32.6273414 15.2349003,30.2292321 15.5894229,27.877976 C15.8455537,26.0725611 16.2930016,24.2991626 16.9239579,22.5882353 L32.4885877,22.5882353 C33.1195439,24.2991626 33.5669919,26.0725611 33.8231226,27.877976 C34.1776452,30.2292321 34.0776917,32.6273414 33.5295093,34.9411149 L33.6442997,35.0738661 L33.75909,35.2058362 L34.9327623,36.5474032 L36.1064348,37.8881892 L38.0383481,40.0941999 L39.9710422,42.3002107 L45.8823529,55.8533162 Z" id="Path" fill="#71C285"></path>
                    <path d="M36,37.9292841 C35.8037388,38.1203048 35.5959329,38.3105585 35.3758606,38.4946749 C35.1521805,38.6833942 34.919842,38.8590721 34.6788448,39.0217082 C34.3606419,39.2296062 34.0222358,39.4290659 33.6679554,39.6154836 C33.3129536,39.8019016 32.9420778,39.975278 32.5589355,40.1310096 C32.4658558,40.1647643 32.3706114,40.1908476 32.2739238,40.2092592 C31.851818,40.2875086 31.4174458,40.187779 31.0631656,39.9315502 C30.407278,39.4574505 30.1698886,38.5476083 30.5025225,37.781991 C30.6836311,37.3623589 31.0119357,37.0355523 31.4174458,36.8721488 C31.688748,36.7701177 31.9535563,36.650442 32.2104276,36.5138891 C32.4528678,36.3865418 32.6888142,36.2453859 32.917545,36.0919555 C33.0907167,35.9837872 33.2559514,35.8610429 33.4110842,35.7252569 C33.5611663,35.5933069 33.7018683,35.4490822 33.8310255,35.2941176 L34.9155126,36.6120845 L36,37.9292841 Z" id="Path" fill="#4C8056"></path>
                    <path d="M18.9575724,39.1083963 C18.8399296,39.4428745 18.6277398,39.7305565 18.3498719,39.9315502 C17.9955002,40.187779 17.5610161,40.2875086 17.1388015,40.2092592 C17.042089,40.1908476 16.9468201,40.1647643 16.8529947,40.1310096 C16.4697536,39.975278 16.0987822,39.8019016 15.7444105,39.6154836 C15.3893172,39.4290659 15.0508236,39.2296062 14.7332604,39.0217082 C14.4922012,38.8590721 14.2598026,38.6833942 14.036065,38.4946749 C13.8152141,38.3105585 13.6073546,38.1203048 13.4117647,37.9292841 L14.4965315,36.6120845 L15.5812984,35.2941176 C15.710489,35.4490822 15.8505055,35.5933069 16.001348,35.7252569 C16.1565209,35.8610429 16.3210762,35.9837872 16.4942925,36.0919555 C16.7230825,36.2453859 16.9598114,36.3865418 17.2023142,36.5138891 C17.4592516,36.650442 17.724128,36.7701177 17.9947785,36.8721488 C18.8392079,37.2104627 19.26864,38.2085273 18.9575724,39.1083963 Z" id="Path" fill="#4C8056"></path>
                    <path d="M38.8185006,67.059214 C38.9199798,72.3458156 37.4836606,77.5473005 34.6851797,82.0327126 C32.1310294,85.8653037 28.60268,88.2352941 24.7058835,88.2352941 C20.809087,88.2352941 17.2807375,85.8653037 14.7265872,82.0327126 C11.927326,77.5473005 10.4917874,72.3458156 10.5932665,67.059214 C10.4917874,61.7726123 11.927326,56.5703465 14.7265872,52.0849345 C17.2807375,48.2531244 20.809087,45.8823529 24.7058835,45.8823529 C28.60268,45.8823529 32.1310294,48.2531244 34.6851797,52.0849345 C37.4836606,56.5703465 38.9199798,61.7726123 38.8185006,67.059214 L38.8185006,67.059214 Z" id="Path" fill="#E4C05C"></path>
                    <path d="M24.3529421,89.6470588 C19.9758317,89.6470588 16.0062211,87.1135905 13.1310832,83.0239035 C9.99286591,78.2806664 8.37145349,72.7193378 8.47528023,67.0588236 C8.37145349,61.3983093 9.99286591,55.8369809 13.1310832,51.0937437 C16.0062211,47.0032879 19.9758317,44.4705882 24.3529421,44.4705882 C28.7300527,44.4705882 32.6996635,47.0032879 35.5748012,51.0937437 C38.7122379,55.8369809 40.3344307,61.3983093 40.2306042,67.0588236 C40.3344307,72.7193378 38.7122379,78.2806664 35.5748012,83.0239035 C32.6996635,87.1135905 28.7300527,89.6470588 24.3529421,89.6470588 Z M24.3529421,47.9451691 C20.9477423,47.9451691 17.8610481,50.088814 15.6244826,53.5495549 C13.1646512,57.6330908 11.9101449,62.3117419 12.0038231,67.0588236 C11.9101449,71.8059052 13.1646512,76.4845564 15.6244826,80.5673233 C17.8610481,84.0280642 20.9477423,86.1717091 24.3529421,86.1717091 C27.7573616,86.1717091 30.8448366,84.0280642 33.0806212,80.5673233 C35.5412334,76.4845564 36.7957395,71.8059052 36.7020614,67.0588236 C36.7957395,62.3117419 35.5412334,57.6330908 33.0806212,53.5495549 C30.8448366,50.088814 27.7573616,47.9451691 24.3529421,47.9451691 Z" id="Shape" fill="#D25627"></path>
                    <path d="M8.94117647,97.4117647 L7.29411765,97.4117647 C6.38459136,97.4117647 5.64705882,96.6221574 5.64705882,95.6474493 C5.64705882,94.6719603 6.38459136,93.8823529 7.29411765,93.8823529 L8.94117647,93.8823529 C9.85070276,93.8823529 10.5882353,94.6719603 10.5882353,95.6474493 C10.5882353,96.6221574 9.85070276,97.4117647 8.94117647,97.4117647 Z" id="Path" fill="#4C8056"></path>
                    <path d="M42.6849817,97.4117647 L15.9032536,97.4117647 C14.9164295,97.4117647 14.1176471,96.6221574 14.1176471,95.6474493 C14.1176471,94.6719603 14.9164295,93.8823529 15.9032536,93.8823529 L42.6849817,93.8823529 C43.6718058,93.8823529 44.4705882,94.6719603 44.4705882,95.6474493 C44.4705882,96.6221574 43.6718058,97.4117647 42.6849817,97.4117647 Z" id="Path" fill="#4C8056"></path>
                    <g id="Group" transform="translate(14.117647, 56.470588)" fill="#D25627">
                        <path d="M10.5617388,5.31319664 C9.60116089,5.31319664 8.82223092,4.53426648 8.82223092,3.57368856 L8.82223092,1.83418048 C8.82223092,0.87360256 9.60116089,0.0954420365 10.5617388,0.0954420365 C11.5223167,0.0954420365 12.3012471,0.87360256 12.3012471,1.83418048 L12.3012471,3.57368856 C12.3012471,4.53426648 11.5223167,5.31319664 10.5617388,5.31319664 L10.5617388,5.31319664 Z" id="Path"></path>
                        <path d="M10.5617388,20.9679996 C9.60116089,20.9679996 8.82223092,20.1890696 8.82223092,19.2284917 L8.82223092,17.4889834 C8.82223092,16.5284055 9.60116089,15.7494755 10.5617388,15.7494755 C11.5223167,15.7494755 12.3012471,16.5284055 12.3012471,17.4889834 L12.3012471,19.2284917 C12.3012471,20.1890696 11.5223167,20.9679996 10.5617388,20.9679996 Z" id="Path"></path>
                        <path d="M5.64185577,7.35057871 C5.18003946,7.35134594 4.73746565,7.16815871 4.4118851,6.84103887 L3.79689968,6.22605344 L3.18191444,5.61183785 C2.73318288,5.17388191 2.55461391,4.52887857 2.71394059,3.92312947 C2.87403691,3.31661072 3.34662883,2.8440188 3.95314757,2.68392248 C4.55889668,2.5245958 5.20390002,2.70316477 5.64185577,3.15189633 L6.25607155,3.76688176 L6.87105698,4.381867 C7.3682791,4.87908932 7.51759981,5.62723173 7.24820687,6.27685333 C6.97881412,6.92724458 6.34458639,7.35057871 5.64185577,7.35057871 Z" id="Path"></path>
                        <path d="M16.7115927,18.4210827 C16.2497764,18.4210827 15.8072024,18.2378956 15.4816218,17.9115455 L14.2516512,16.6815746 C13.7998409,16.2443885 13.6181931,15.5978457 13.7775198,14.9897876 C13.9368465,14.3817294 14.4117475,13.9068283 15.0198055,13.7475017 C15.6278638,13.5881752 16.2744066,13.7698227 16.7115927,14.2216331 L17.9415636,15.4516039 C18.4387857,15.9488261 18.5873366,16.6969685 18.3179438,17.3473597 C18.0493205,17.9969815 17.4150928,18.420313 16.7115927,18.4210827 Z" id="Path"></path>
                        <path d="M3.60370647,12.271229 L1.86496823,12.271229 C0.90362067,12.271229 0.125460146,11.4922988 0.125460146,10.5317209 C0.125460146,9.57114298 0.90362067,8.79221281 1.86496823,8.79221281 L3.60370647,8.79221281 C4.56428439,8.79221281 5.34321475,9.57114298 5.34321475,10.5317209 C5.34321475,11.4922988 4.56428439,12.271229 3.60370647,12.271229 Z" id="Path"></path>
                        <path d="M19.2585096,12.271229 L17.5190015,12.271229 C16.5584236,12.271229 15.7794934,11.4922988 15.7794934,10.5317209 C15.7794934,9.57114298 16.5584236,8.79221281 17.5190015,8.79221281 L19.2585096,8.79221281 C20.2190875,8.79221281 20.9980177,9.57114298 20.9980177,10.5317209 C20.9980177,11.4922988 20.2190875,12.271229 19.2585096,12.271229 Z" id="Path"></path>
                        <path d="M4.4118851,18.4210827 C3.70838483,18.420313 3.07415711,17.9969815 2.80476436,17.3473597 C2.53614126,16.6969685 2.68469212,15.9488261 3.18191444,15.4516039 L4.4118851,14.2216331 C4.84830156,13.7698227 5.49484439,13.5881752 6.10367207,13.7475017 C6.71173031,13.9068283 7.18663136,14.3817294 7.34595803,14.9897876 C7.50451506,15.5978457 7.32363696,16.2443885 6.87105698,16.6815746 L6.25607155,17.29656 L5.64185577,17.9115455 C5.31550558,18.2378956 4.87293177,18.4210827 4.4118851,18.4210827 L4.4118851,18.4210827 Z" id="Path"></path>
                    </g>
                    <path d="M64.9413718,91.7647059 C61.7342708,91.8717409 58.5396641,92.2227529 55.3848826,92.8138065 C53.1843446,93.1711145 51.0501818,93.8668421 49.0589211,94.8773785 C48.5693053,95.1433921 48.1281044,95.4904688 47.7532789,95.9044425 C47.4721598,96.2050849 47.3089545,96.598596 47.2941176,97.0109956 C47.3011456,97.3415449 47.4096888,97.6618629 47.6049104,97.9270893 C47.8540132,98.2670829 48.1609016,98.5590682 48.5115198,98.7896656 C50.8596453,100.138621 53.4475033,101.008281 56.1290676,101.349062 C60.206076,102.040854 64.3354038,102.374551 68.4701977,102.347006 C73.5053539,102.415477 78.5311396,101.89132 83.4460392,100.786341 C87.2778493,99.8214517 89.6470588,98.4874491 89.6470588,97.0109956 C89.6470588,95.6864372 87.7409149,94.4767843 84.5822291,93.5473112 C80.4700806,92.4659427 76.2478273,91.8678058 71.9998047,91.7647059 L64.9413718,91.7647059 Z" id="Path" fill="#41767F"></path>
                    <path d="M29.0885598,63.5294118 C28.4578173,63.5294118 27.8891829,63.149866 27.6483414,62.5667492 C27.4068097,61.9843224 27.5399973,61.3135656 27.9857955,60.8677744 L29.0885598,59.765028 C29.4805311,59.3627119 30.0588268,59.2026135 30.602618,59.34546 C31.1457191,59.4889964 31.5701247,59.9127049 31.7129733,60.4564872 C31.8565121,60.9995795 31.6964111,61.5778657 31.2940886,61.9705209 L30.7427064,62.5212039 L30.1913242,63.0725771 C29.8987259,63.3658607 29.5026139,63.5300996 29.0885598,63.5294118 Z" id="Path" fill="#D25627"></path>
                    <path d="M31.7647059,67.058479 C31.7647059,70.4254733 29.3862255,73.3239619 26.0832219,73.9814314 C22.7809992,74.6381204 19.4740913,72.8702922 18.1849047,69.7594144 C16.8964992,66.6485365 17.9850067,63.0605637 20.7851417,61.1896643 C23.5844958,59.3187648 27.3161871,59.6865417 29.6977853,62.0673316 C31.0236719,63.3892985 31.767043,65.1860178 31.7647059,67.058479 L31.7647059,67.058479 Z" id="Path" fill="#F0C419"></path>
                    <polygon id="Path" fill="#E57E25" points="31.0588235 16.2352941 28.0593924 19.7643153 25.0592027 23.2941176 22.0590132 19.7643153 19.0588235 16.2352941"></polygon>
                    <path d="M24.7058824,23.2941176 L14.286569,23.2941176 C14.017614,23.2941176 13.7494275,23.2769373 13.4827779,23.2433573 C13.2215074,23.2105583 12.9617739,23.1629215 12.7058824,23.1004471 L15.6666919,19.6674803 L18.6275013,16.2352941 L21.6666919,19.7643153 L24.7058824,23.2941176 Z" id="Path" fill="#D25627"></path>
                    <path d="M37.4117647,23.1004471 C37.155857,23.1629215 36.8968753,23.2105583 36.6348196,23.2433573 C36.3681529,23.2769373 36.0999493,23.2941176 35.8317455,23.2941176 L25.4117647,23.2941176 L28.4511499,19.7643153 L31.4897667,16.2352941 L34.4507657,19.6674803 L37.4117647,23.1004471 Z" id="Path" fill="#D25627"></path>
                    <path d="M81.0549865,61.4117647 C81.266446,63.2558131 81.2015576,65.1223786 80.8626119,66.9470159 C80.5893179,69.0674776 79.3152179,70.9185141 77.4494899,71.9045947 C74.8615937,73.0708099 73.5676455,75.9925592 72.9210531,78.6223663 C72.5271434,80.2490113 72.3103401,81.9152546 72.2736974,83.590039 L72.2736974,91.87234 C72.2736974,92.7800003 71.9194838,93.6496147 71.2881595,94.2917319 C70.6575982,94.9330724 69.8018367,95.2941176 68.9094324,95.2941176 L68.7369059,95.2941176 C67.845265,95.2941176 66.9895035,94.9330724 66.3581789,94.2917319 C65.7276179,93.6496147 65.3734044,92.7800003 65.3734044,91.87234 L65.3734044,83.590039 C65.3367616,81.9152546 65.1199585,80.2490113 64.7260486,78.6223663 C64.0794562,75.9925592 62.7855081,73.0708099 60.197612,71.9045947 C58.3318839,70.9185141 57.0570204,69.0674776 56.7837265,66.9470159 C56.4455441,65.1223786 56.3806559,63.2558131 56.5921152,61.4117647 L81.0549865,61.4117647 Z" id="Path" fill="#B0D3F0"></path>
                    <path d="M98.8235294,44.4705882 C98.5744241,45.7567942 98.1917861,47.0133244 97.6810813,48.2198745 C97.1735002,49.4264248 96.5729924,50.5923661 95.8850248,51.7059844 C94.6980657,53.6333411 93.2120241,55.3599963 91.4823438,56.8211325 C89.7557869,58.2853924 87.8105795,59.4708571 85.7170024,60.3330134 C83.890491,61.0608482 81.9765197,61.5465921 80.0235033,61.7777499 C78.0634592,62.0096886 76.0917016,62.1229247 74.1176012,62.1174583 L63.5294578,62.1174583 C61.5553574,62.1229247 59.5828188,62.0089077 57.6227746,61.7769688 C55.6697585,61.545811 53.7557869,61.0600673 51.9292755,60.3322325 C49.8356984,59.4692954 47.8904911,58.2846113 46.1639342,56.8203516 C44.4350347,55.3592154 42.9489931,53.6333411 41.762034,51.7059844 C41.0740664,50.5923661 40.4735586,49.4264248 39.9659776,48.2198745 C39.4552727,47.0133244 39.0726347,45.7567942 38.8235294,44.4705882 L98.8235294,44.4705882 Z" id="Path" fill="#90BAE1"></path>
                    <path d="M98.8235294,44.118037 C98.8235294,45.5781501 95.4656847,46.9002077 90.0369087,47.8564569 C83.0205751,48.9570016 75.925371,49.4756851 68.8231389,49.4054872 C61.7216878,49.4756851 54.6264839,48.9570016 47.6101501,47.8564569 C42.1813741,46.9002077 38.8235294,45.5781501 38.8235294,44.118037 C38.8235294,42.657144 42.1813741,41.3358663 47.6101501,40.3788372 C54.6264839,39.2782925 61.7216878,38.7596092 68.8231389,38.8298068 C75.925371,38.7596092 83.0205751,39.2782925 90.0369087,40.3788372 C95.4656847,41.3358663 98.8235294,42.657144 98.8235294,44.118037 Z" id="Path" fill="#41767F"></path>
                </g>
            </g>
        </g>
    </g>
</svg>