<?xml version="1.0" encoding="UTF-8"?>
<svg width="126px" height="140px" viewBox="0 0 126 140" version="1.1" xmlns="http://www.w3.org/2000/svg" xmlns:xlink="http://www.w3.org/1999/xlink">
    <!-- Generator: Sketch 60 (88103) - https://sketch.com -->
    <title>Vodka</title>
    <desc>Created with Sketch.</desc>
    <defs>
        <linearGradient x1="90.0277008%" y1="5.15213816%" x2="13.6384392%" y2="100%" id="linearGradient-1">
            <stop stop-color="#19B300" offset="0%"></stop>
            <stop stop-color="#225809" offset="100%"></stop>
        </linearGradient>
    </defs>
    <g id="Page-1" stroke="none" stroke-width="1" fill="none" fill-rule="evenodd">
        <g id="Mobile" transform="translate(-19.000000, -25.000000)">
            <g id="Vodka" transform="translate(22.000000, 28.000000)">
                <rect id="Rectangle" stroke="#858585" stroke-width="5" fill="url(#linearGradient-1)" x="0" y="0" width="120" height="134.117647" rx="15"></rect>
                <g id="vodka" transform="translate(27.529412, 8.470588)" fill-rule="nonzero">
                    <path d="M30.5867415,107.748413 C30.005232,107.327064 29.699825,106.620772 29.7121878,105.902808 L30.8603256,39.8636056 C30.9022218,38.8458221 30.5237828,37.855503 29.8138375,37.1247221 L23.0781718,30.1929461 C22.0813638,29.1671522 21.5236642,27.7930186 21.5236642,26.362812 L21.5236642,0 L15.6893382,0 L9.85501229,0 L9.85501229,26.3630409 C9.85501229,27.7932475 9.29731263,29.1671522 8.30050463,30.193175 L1.56483897,37.124951 C0.854893717,37.8557319 0.476454665,38.846051 0.518350821,39.8638345 L1.66648866,105.903037 C1.6790804,106.621001 1.37367344,107.327293 0.791935012,107.748642 C0.397241167,108.034729 0.14609317,108.504141 0.160516437,109.032372 L0.314364617,114.720699 C0.351224077,116.087738 1.47051538,117.176471 2.83820739,117.176471 L15.6893382,117.176471 L28.5404691,117.176471 C29.90839,117.176471 31.0274524,116.087509 31.0643119,114.720699 L31.21816,109.032372 C31.2325833,108.504141 30.9814353,108.0345 30.5867415,107.748413 Z" id="Path" fill="#CDEAE0"></path>
                    <path d="M30.5905712,107.748413 C30.0125855,107.327064 29.7090292,106.620772 29.7213171,105.902808 L30.8624976,39.8636056 C30.9041399,38.8458221 30.527994,37.855503 29.8223508,37.1247221 L23.127501,30.1929461 C22.1367333,29.1671522 21.5824131,27.7930186 21.5824131,26.362812 L21.5824131,0 L15.7834412,0 L9.98446926,0 L9.98446926,26.3630409 C9.98446926,27.2753154 9.75691582,28.1635586 9.33639706,28.9543034 C9.57510062,29.4033457 9.87456095,29.8214906 10.2334127,30.1929461 L16.9282625,37.1247221 C17.6339058,37.855503 18.0100516,38.8458221 17.9684093,39.8636056 L16.8272288,105.902808 C16.8147134,106.620772 17.1182697,107.327064 17.696483,107.748413 C18.0887851,108.0345 18.3384112,108.503912 18.3240754,109.032143 L18.105169,117.176471 L28.5566985,117.176471 C29.9163304,117.176471 31.0286116,116.087509 31.0652477,114.720699 L31.2181636,109.032372 C31.2324995,108.504141 30.9828733,108.0345 30.5905712,107.748413 Z" id="Path" fill="#B6D1C6"></path>
                    <path d="M21.0937735,22.5882353 L10.284903,22.5882353 C9.76100713,22.5882353 9.33639706,22.1587986 9.33639706,21.6289474 L9.33639706,0.959287877 C9.33639706,0.429436728 9.76100713,0 10.284903,0 L21.0937735,0 C21.6176693,0 22.0422794,0.429436728 22.0422794,0.959287877 L22.0422794,21.6289474 C22.0420543,22.1587986 21.6174442,22.5882353 21.0937735,22.5882353 Z" id="Path" fill="#E52D15"></path>
                    <path d="M8.76930284,51.3361366 C13.4760655,48.7144675 18.6056959,48.7144675 23.3143224,51.3418014 C24.2495241,51.8634162 25.4198077,51.2387021 25.4643078,50.1911674 L25.5696171,47.7002418 C25.6101564,46.7424375 25.0535553,45.8471726 24.1523694,45.4594737 C18.9029847,43.2021644 13.1857662,43.1992187 7.93358571,45.4540355 C7.03146785,45.8412812 6.47440075,46.7372259 6.51494014,47.6954833 L6.62024935,50.185276 C6.6645165,51.2321309 7.8343341,51.8570716 8.76930284,51.3361366 Z" id="Path" fill="#FC502A"></path>
                    <g id="Group" transform="translate(7.218750, 95.294118)" fill="#FFFFFF">
                        <path d="M14.9929412,3.63656815 L1.7845469,3.63656815 C0.807682035,3.63656815 0.0155675676,2.86216356 0.0155675676,1.90713917 C0.0155675676,0.952114778 0.807682035,0.177710187 1.7845469,0.177710187 L14.9929412,0.177710187 C15.969806,0.177710187 16.7619205,0.952114778 16.7619205,1.90713917 C16.7619205,2.86216356 15.970035,3.63656815 14.9929412,3.63656815 Z" id="Path"></path>
                        <path d="M14.9929412,8.97839311 L1.7845469,8.97839311 C0.807682035,8.97839311 0.0155675676,8.20398852 0.0155675676,7.24896413 C0.0155675676,6.29393974 0.807682035,5.51953515 1.7845469,5.51953515 L14.9929412,5.51953515 C15.969806,5.51953515 16.7619205,6.29393974 16.7619205,7.24896413 C16.7619205,8.20421234 15.970035,8.97839311 14.9929412,8.97839311 Z" id="Path"></path>
                    </g>
                    <path d="M22.8245033,74.1176471 L9.26005553,74.1176471 C8.63868804,74.1176471 8.13195293,73.6295511 8.12065115,73.0199403 L7.92483043,62.550429 C7.91306735,61.9249783 8.42672192,61.4117647 9.06423482,61.4117647 L23.020324,61.4117647 C23.6578369,61.4117647 24.1714915,61.9249783 24.1597284,62.550429 L23.9639077,73.0199403 C23.9526059,73.6293248 23.4456401,74.1176471 22.8245033,74.1176471 Z" id="Path" fill="#FC502A"></path>
                    <polygon id="Path" fill="#4A4256" points="9.33639706 4.23529412 9.33639706 7.76470588 9.33639706 7.76470588 22.0422794 7.76470588 22.0422794 4.23529412"></polygon>
                    <path d="M61.1200667,117.176471 L45.081912,117.176471 C43.757423,117.176471 42.6592492,116.147202 42.5697229,114.821871 L40.3985972,82.7240195 C40.3420184,81.8868844 41.0036948,81.1764706 41.8403338,81.1764706 L64.3618721,81.1764706 C65.1985111,81.1764706 65.8601875,81.8868844 65.8036087,82.7240195 L63.6324829,114.821871 C63.5427295,116.147202 62.4445556,117.176471 61.1200667,117.176471 Z" id="Path" fill="#E5F9F6"></path>
                    <path d="M64.3826209,81.1764706 L53.3836105,81.1764706 L50.9834559,117.176471 L61.1876404,117.176471 C62.4930898,117.176471 63.5754773,116.147202 63.6637166,114.821871 L65.8036324,82.7240195 C65.8596219,81.8868844 65.2072331,81.1764706 64.3826209,81.1764706 Z" id="Path" fill="#D6E5E2"></path>
                    <path d="M41.1011029,87.5294118 L42.9308908,114.804109 C43.0205751,116.139667 44.1176759,117.176471 45.4411445,117.176471 L61.4669437,117.176471 C62.7904123,117.176471 63.8877401,116.139438 63.9771974,114.804109 L65.8069853,87.5294118 L41.1011029,87.5294118 Z" id="SVGCleanerId_0" fill="#CDEAE0"></path>
                    <path d="M41.1011029,87.5294118 L42.9308908,114.804109 C43.0205751,116.139667 44.1176759,117.176471 45.4411445,117.176471 L61.4669437,117.176471 C62.7904123,117.176471 63.8877401,116.139438 63.9771974,114.804109 L65.8069853,87.5294118 L41.1011029,87.5294118 Z" id="SVGCleanerId_0_1_" fill="#CDEAE0"></path>
                    <path d="M52.9911574,87.5294118 L50.9834559,117.176471 L61.4260248,117.176471 C62.7619714,117.176471 63.869645,116.139446 63.9599458,114.804127 L65.8069853,87.5294118 L52.9911574,87.5294118 L52.9911574,87.5294118 Z" id="Path" fill="#B6D1C6"></path>
                    <path d="M63.4570063,111.746521 L43.4513128,111.746521 C43.1139436,111.746521 42.7948169,111.668335 42.5128676,111.529412 L42.7516354,114.894721 C42.8428475,116.179268 43.9586367,117.176471 45.3046497,117.176471 L61.6034385,117.176471 C62.9494515,117.176471 64.0654716,116.179047 64.1564528,114.894721 L64.3952206,111.529412 C64.1135023,111.668335 63.7941446,111.746521 63.4570063,111.746521 Z" id="Path" fill="#DFEDE7"></path>
                    <path d="M64.1546821,114.894369 L64.2035342,114.212146 L64.3952206,111.529412 C64.1114131,111.66833 63.7896871,111.746513 63.449816,111.746513 L51.3714812,111.746513 L50.9834559,117.176471 L61.5827349,117.176471 C62.9387299,117.17625 64.0630263,116.178865 64.1546821,114.894369 Z" id="Path" fill="#D7E0DC"></path>
                    <g id="Group" transform="translate(17.101103, 43.764706)" fill="#E52D15">
                        <path d="M6.31204034,1.80771163 C4.46958655,0.969696594 2.56634622,0.442513932 0.647354622,0.22182751 L0.551294118,5.90490226 C2.23246387,6.17168863 3.89943529,6.77966033 5.51405042,7.73246882 C6.40455126,8.25782574 7.51889748,7.62862981 7.56127059,6.57357983 L7.66154622,4.06478372 C7.70036975,3.10010792 7.17037311,2.19819195 6.31204034,1.80771163 Z" id="Path"></path>
                        <path d="M5.30151933,17.4369659 L0.356510924,17.4369659 L0.139986555,30.2511561 L5.11316975,30.2511561 C5.71083025,30.2511561 6.19823193,29.7588908 6.20910252,29.1440725 L6.3974521,18.5851287 C6.40876639,17.9545635 5.91470924,17.4369659 5.30151933,17.4369659 Z" id="Path"></path>
                    </g>
                </g>
            </g>
        </g>
    </g>
</svg>