<?xml version="1.0" encoding="UTF-8"?>
<svg width="126px" height="140px" viewBox="0 0 126 140" version="1.1" xmlns="http://www.w3.org/2000/svg" xmlns:xlink="http://www.w3.org/1999/xlink">
    <!-- Generator: Sketch 60 (88103) - https://sketch.com -->
    <title>Whiskey</title>
    <desc>Created with Sketch.</desc>
    <defs>
        <linearGradient x1="90.0277008%" y1="5.15213816%" x2="13.6384392%" y2="100%" id="linearGradient-1">
            <stop stop-color="#2975FF" offset="0%"></stop>
            <stop stop-color="#0A117C" offset="100%"></stop>
        </linearGradient>
    </defs>
    <g id="Page-1" stroke="none" stroke-width="1" fill="none" fill-rule="evenodd">
        <g id="Mobile" transform="translate(-421.000000, -25.000000)">
            <g id="Whiskey" transform="translate(424.000000, 28.000000)">
                <rect id="Rectangle-Copy-2" stroke="#858585" stroke-width="5" fill="url(#linearGradient-1)" x="0" y="0" width="120" height="134.117647" rx="15"></rect>
                <g id="whiskey-(1)" transform="translate(18.352941, 10.588235)" fill-rule="nonzero">
                    <path d="M79.731119,113.647059 L60.7399185,113.647059 C58.7719336,113.647059 57.1764706,112.075349 57.1764706,110.136664 L57.1764706,80.063912 C57.1764706,79.5088004 57.633248,79.0588235 58.1967491,79.0588235 L82.273839,79.0588235 C82.8373401,79.0588235 83.2941176,79.5088004 83.2941176,80.063912 L83.2941176,110.136664 C83.2945669,112.075349 81.6991039,113.647059 79.731119,113.647059 Z" id="Path" fill="#E5F9F6"></path>
                    <path d="M82.2827241,79.0588235 L70.5882353,79.0588235 L70.5882353,113.647059 L79.7624791,113.647059 C81.7128966,113.647059 83.2941176,112.075571 83.2941176,110.136664 L83.2941176,80.063912 C83.2941176,79.5088004 82.8414177,79.0588235 82.2827241,79.0588235 Z" id="Path" fill="#D6E5E2"></path>
                    <g id="Group" transform="translate(0.000000, 12.000000)" fill="#FD9727">
                        <path d="M57.3730325,77.5369965 L57.3730325,97.9135779 C57.3730325,99.8532872 58.9460951,101.425827 60.8864493,101.425827 L79.6110113,101.425827 C81.5513655,101.425827 83.124428,99.8532872 83.124428,97.9135779 L83.124428,77.5369965 L57.3730325,77.5369965 L57.3730325,77.5369965 Z" id="Path"></path>
                        <path d="M27.6833317,22.423474 C27.6833317,22.423474 28.9752766,21.1222145 28.9752766,15.0907128 C28.9752766,6.33666436 25.7407622,0.0259100346 25.7407622,0.0259100346 L14.5972941,0.0259100346 C14.5972941,0.0259100346 11.3627797,6.33666436 11.3627797,15.0907128 C11.3627797,21.1222145 12.6545031,22.423474 12.6545031,22.423474 L2.70927409,30.3393218 C1.10475469,31.6164429 0.170132666,33.5548235 0.170132666,35.6050381 L0.170132666,97.4401107 C0.170132666,99.6411349 1.95497497,101.425384 4.15673091,101.425384 L36.1813254,101.425384 C38.3830814,101.425384 40.1679237,99.6411349 40.1679237,97.4401107 L40.1679237,35.6050381 C40.1679237,33.5548235 39.2330801,31.6162215 37.6287822,30.3393218 L27.6833317,22.423474 Z" id="Path"></path>
                    </g>
                    <path d="M37.6921556,42.387361 L27.7312709,34.4522026 C27.7312709,34.4522026 29.0250277,33.1477687 29.0250277,27.1015532 C29.0250277,18.3261493 25.7854215,12 25.7854215,12 L16.2356724,12 C16.2356724,20.5827135 16.2352941,30.6234804 16.2352941,30.6576674 C16.2132629,35.8192387 18.5533852,37.3292386 22.589303,40.5443708 L24.9030221,42.387583 C26.5100674,43.6678196 27.4461607,45.6109289 27.4461607,47.6661449 L27.4461607,113.647059 L36.2424202,113.647059 C38.4476421,113.647059 40.2352941,111.858457 40.2352941,109.652063 L40.2352941,47.6659229 C40.2352941,45.6107069 39.2992008,43.6675976 37.6921556,42.387361 Z" id="Path" fill="#E57F23"></path>
                    <rect id="Rectangle" fill="#4A4256" x="0" y="51.5294118" width="40.2352941" height="52.9411765"></rect>
                    <rect id="Rectangle" fill="#352F3F" x="27.5294118" y="51.5294118" width="12.7058824" height="52.9411765"></rect>
                    <g id="Group" transform="translate(7.058824, 58.588235)" fill="#EFEFEF">
                        <path d="M22.2693469,8.17097769 C16.0634787,5.47711156 10.0888418,5.47097769 3.86833874,8.17119675 C3.13344219,8.49015822 2.26908316,8.21501014 1.85885598,7.54159838 C1.34393306,6.69643813 0.829010142,5.85127789 0.313862069,5.00589858 C-0.168864097,4.21353347 0.161659229,3.1896146 1.02083976,2.80274239 C9.02387221,-0.800908722 17.1104361,-0.802442191 25.1168458,2.80274239 C25.9760264,3.1896146 26.3067748,4.21353347 25.8238235,5.00589858 C25.3089006,5.85105882 24.7939777,6.69621907 24.2790548,7.54159838 C23.8688276,8.21501014 23.0042434,8.48993915 22.2693469,8.17097769 Z" id="Path"></path>
                        <ellipse id="Oval" cx="13.0678296" cy="21.302069" rx="10.1363489" ry="6.76084381"></ellipse>
                        <path d="M23.5826592,38.1055984 L2.55480122,38.1055984 C1.59385193,38.1055984 0.814825558,37.3476268 0.814825558,36.4126491 C0.814825558,35.4776714 1.59385193,34.7196998 2.55480122,34.7196998 L23.5826592,34.7196998 C24.5436085,34.7196998 25.3226349,35.4776714 25.3226349,36.4126491 C25.3226349,37.3476268 24.5436085,38.1055984 23.5826592,38.1055984 Z" id="Path"></path>
                    </g>
                    <path d="M28.9411765,26.1176471 C28.797011,17.8797761 25.7046717,12 25.7046717,12 L14.5306224,12 C14.5306224,12 11.4385053,17.8795598 11.2941176,26.1176471 L28.9411765,26.1176471 Z" id="Path" fill="#4A4256"></path>
                    <path d="M28.9411765,26.1176471 C28.8068662,18.395508 26.1010329,12.7455948 25.7625005,12.0683318 C25.7576485,12.0588172 25.7552226,12.0538437 25.7514733,12.0462753 C25.7464009,12.036112 25.7402257,12.0240026 25.7369176,12.0175154 C25.7311835,12.0060547 25.7278753,12 25.7278753,12 L16.2355147,12 C16.2355147,16.992328 16.2355147,22.4902246 16.2352941,26.1176471 L28.9411765,26.1176471 Z" id="Path" fill="#352F3F"></path>
                    <path d="M27.1632715,13.4117647 L13.777905,13.4117647 C13.1858727,13.4117647 12.7058824,12.9471732 12.7058824,12.3741342 L12.7058824,1.03763051 C12.7058824,0.464591521 13.1858727,0 13.777905,0 L27.1632715,0 C27.7553038,0 28.2352941,0.464591521 28.2352941,1.03763051 L28.2352941,12.3739203 C28.2352941,12.9471732 27.7553038,13.4117647 27.1632715,13.4117647 Z" id="Path" fill="#4A4256"></path>
                    <rect id="Rectangle" fill="#EFEFEF" x="12.7058824" y="4.23529412" width="15.5294118" height="3.52941176"></rect>
                    <path d="M83.2941176,110.118465 L83.2941176,89.6470588 L70.5882353,89.6470588 L70.5882353,113.647059 L79.7624791,113.647059 C81.7128966,113.647059 83.2941176,112.067424 83.2941176,110.118465 Z" id="Path" fill="#E57F23"></path>
                    <path d="M79.730731,107.848826 L60.7398572,107.848826 C58.7719062,107.848826 57.1764706,107.89666 57.1764706,105.882353 L57.1764706,109.999735 C57.1764706,112.014042 58.7719062,113.647059 60.7398572,113.647059 L79.730731,113.647059 C81.698682,113.647059 83.2941176,112.014042 83.2941176,109.999735 L83.2941176,105.882353 C83.2941176,107.89689 81.698682,107.848826 79.730731,107.848826 Z" id="Path" fill="#D7E0DC"></path>
                    <path d="M79.7626399,107.848654 L70.5882353,107.848654 L70.5882353,113.647059 L79.7626399,113.647059 C80.9294817,113.647059 81.9611568,113.060158 82.6040332,112.159109 C82.7000081,112.024803 82.7901934,111.885897 82.8679087,111.738252 C82.9222425,111.634992 82.9719001,111.528513 83.0166587,111.419504 C83.0705472,111.288187 83.1144151,111.151581 83.1531614,111.012905 C83.2068272,110.821334 83.2462415,110.623784 83.2687322,110.420715 C83.2840971,110.282499 83.2941176,110.142443 83.2941176,109.999857 L83.2941176,105.882353 C83.2943403,107.89672 81.7130916,107.848654 79.7626399,107.848654 Z" id="Path" fill="#C9D1CD"></path>
                    <g id="Group" transform="translate(26.823529, 59.294118)" fill="#DEE0E2">
                        <path d="M4.68162896,1.73736223 C3.17299548,1.02070588 1.66110407,0.446266254 0.147692308,0.00958513932 L0.147692308,6.46172136 C0.741502262,6.68084211 1.33683258,6.92604334 1.93455204,7.19977709 C2.64347511,7.52433437 3.47750226,7.24458204 3.87323077,6.55913313 C4.36995475,5.69914551 4.86667873,4.83915789 5.36361991,3.97917028 C5.82950226,3.17290402 5.51066063,2.13102167 4.68162896,1.73736223 Z" id="Path"></path>
                        <path d="M0.147909502,15.825065 L0.147909502,25.2965201 C1.81335747,24.062935 2.83721267,22.3964582 2.83721267,20.5607926 C2.83721267,18.7251269 1.81314027,17.0586502 0.147909502,15.825065 Z" id="Path"></path>
                    </g>
                </g>
            </g>
        </g>
    </g>
</svg>